<svg width="30" height="31" viewBox="0 0 30 31" fill="none" xmlns="http://www.w3.org/2000/svg">
<path d="M18.7187 4.27375L19.9187 2.10875C19.9341 2.08101 19.9438 2.05052 19.9474 2.01902C19.951 1.98751 19.9483 1.95562 19.9395 1.92515C19.9308 1.89468 19.9161 1.86623 19.8963 1.84144C19.8766 1.81664 19.8521 1.79598 19.8244 1.78063C19.7966 1.76528 19.7661 1.75555 19.7346 1.75198C19.7031 1.74842 19.6712 1.7511 19.6408 1.75986C19.6103 1.76862 19.5819 1.7833 19.5571 1.80306C19.5323 1.82282 19.5116 1.84726 19.4962 1.875L18.2837 4.0625C17.2487 3.60869 16.1308 3.37439 15.0006 3.37439C13.8705 3.37439 12.7526 3.60869 11.7175 4.0625L10.505 1.875C10.474 1.81865 10.4219 1.77691 10.3601 1.75898C10.2983 1.74104 10.232 1.74838 10.1756 1.77938C10.1193 1.81038 10.0775 1.86249 10.0596 1.92426C10.0417 1.98603 10.049 2.0524 10.08 2.10875L11.28 4.27375C10.1382 4.83687 9.17358 5.70351 8.49181 6.77864C7.81004 7.85377 7.43749 9.09588 7.415 10.3688H22.5862C22.5635 9.09561 22.1906 7.85333 21.5084 6.77817C20.8261 5.70301 19.861 4.83652 18.7187 4.27375ZM11.5 7.5925C11.3746 7.5925 11.252 7.5553 11.1478 7.48561C11.0435 7.41592 10.9623 7.31687 10.9144 7.20099C10.8664 7.08511 10.854 6.95762 10.8785 6.83466C10.9031 6.71169 10.9636 6.59876 11.0523 6.51018C11.1411 6.4216 11.2541 6.36134 11.3771 6.33703C11.5001 6.31272 11.6276 6.32545 11.7434 6.37361C11.8592 6.42176 11.9581 6.50319 12.0276 6.60757C12.097 6.71196 12.134 6.83461 12.1337 6.96C12.1334 7.12787 12.0665 7.28874 11.9477 7.40733C11.8289 7.52591 11.6679 7.5925 11.5 7.5925ZM18.5025 7.5925C18.3771 7.5925 18.2545 7.5553 18.1503 7.48561C18.046 7.41592 17.9648 7.31687 17.9169 7.20099C17.8689 7.08511 17.8565 6.95762 17.881 6.83466C17.9056 6.71169 17.9661 6.59876 18.0548 6.51018C18.1436 6.4216 18.2566 6.36134 18.3796 6.33703C18.5026 6.31272 18.6301 6.32545 18.7459 6.37361C18.8617 6.42176 18.9606 6.50319 19.0301 6.60757C19.0995 6.71196 19.1365 6.83461 19.1362 6.96C19.1359 7.12787 19.069 7.28874 18.9502 7.40733C18.8314 7.52591 18.6704 7.5925 18.5025 7.5925ZM7.4125 21.9638C7.41217 22.2051 7.45948 22.4441 7.55172 22.6671C7.64397 22.8902 7.77932 23.0928 7.95003 23.2634C8.12074 23.4339 8.32345 23.5692 8.54652 23.6613C8.7696 23.7533 9.00866 23.8005 9.25 23.8H10.4662V27.55C10.4662 28.001 10.6454 28.4336 10.9644 28.7525C11.2833 29.0715 11.7158 29.2506 12.1669 29.2506C12.6179 29.2506 13.0505 29.0715 13.3694 28.7525C13.6883 28.4336 13.8675 28.001 13.8675 27.55V23.8H16.135V27.55C16.135 28.0009 16.3141 28.4333 16.6329 28.7521C16.9517 29.0709 17.3841 29.25 17.835 29.25C18.2859 29.25 18.7183 29.0709 19.0371 28.7521C19.3559 28.4333 19.535 28.0009 19.535 27.55V23.8H20.7525C20.9935 23.8002 21.2322 23.7528 21.4549 23.6607C21.6776 23.5685 21.88 23.4333 22.0504 23.2629C22.2208 23.0925 22.356 22.8901 22.4482 22.6674C22.5403 22.4447 22.5877 22.206 22.5875 21.965V10.9688H7.4125V21.9638ZM5.07875 10.6763C4.62787 10.6769 4.19566 10.8564 3.87696 11.1753C3.55825 11.4943 3.37908 11.9266 3.37875 12.3775V19.4638C3.37875 19.687 3.42272 19.9081 3.50815 20.1143C3.59359 20.3206 3.71881 20.508 3.87667 20.6658C4.03453 20.8237 4.22193 20.9489 4.42819 21.0343C4.63444 21.1198 4.8555 21.1638 5.07875 21.1638C5.302 21.1638 5.52306 21.1198 5.72931 21.0343C5.93556 20.9489 6.12297 20.8237 6.28083 20.6658C6.43869 20.508 6.56391 20.3206 6.64934 20.1143C6.73478 19.9081 6.77875 19.687 6.77875 19.4638V12.3775C6.77809 11.9268 6.59877 11.4948 6.2801 11.1762C5.96143 10.8575 5.52941 10.6782 5.07875 10.6775M24.9187 10.6775C24.4679 10.6782 24.0357 10.8577 23.717 11.1766C23.3983 11.4955 23.2191 11.9279 23.2187 12.3788V19.465C23.2187 19.6883 23.2627 19.9093 23.3482 20.1156C23.4336 20.3218 23.5588 20.5092 23.7167 20.6671C23.8745 20.8249 24.0619 20.9502 24.2682 21.0356C24.4744 21.121 24.6955 21.165 24.9187 21.165C25.142 21.165 25.3631 21.121 25.5693 21.0356C25.7756 20.9502 25.963 20.8249 26.1208 20.6671C26.2787 20.5092 26.4039 20.3218 26.4893 20.1156C26.5748 19.9093 26.6187 19.6883 26.6187 19.465V12.3775C26.6181 11.9268 26.4388 11.4948 26.1201 11.1762C25.8014 10.8575 25.3694 10.6782 24.9187 10.6775Z" fill="white"/>
</svg>
