<svg width="24" height="24" viewBox="0 0 24 24" fill="none" xmlns="http://www.w3.org/2000/svg">
<path d="M11.6465 13.0566L12 13.41L12.3535 13.0566L16.3055 9.1056L16.3118 9.09934L16.3178 9.09287C16.3819 9.02409 16.4592 8.96893 16.545 8.93067C16.6309 8.89241 16.7236 8.87184 16.8176 8.87018C16.9116 8.86852 17.0049 8.88581 17.0921 8.92102C17.1793 8.95623 17.2585 9.00863 17.3249 9.0751C17.3914 9.14157 17.4438 9.22075 17.479 9.30791C17.5142 9.39507 17.5315 9.48843 17.5298 9.58242C17.5282 9.67641 17.5076 9.7691 17.4693 9.85497C17.4311 9.94083 17.3759 10.0181 17.3072 10.0822L17.3007 10.0882L17.2945 10.0945L12.4947 14.8942C12.3634 15.0253 12.1855 15.0989 12 15.0989C11.8145 15.0989 11.6366 15.0253 11.5053 14.8942L6.70579 10.0947C6.70576 10.0946 6.70573 10.0946 6.7057 10.0946C6.57467 9.96334 6.50107 9.78547 6.50107 9.60001C6.50107 9.41461 6.57462 9.23679 6.70557 9.10556C6.83679 8.97461 7.01461 8.90106 7.20001 8.90106C7.38543 8.90106 7.56327 8.97463 7.6945 9.1056C7.69454 9.10564 7.69458 9.10568 7.69461 9.10571C7.69463 9.10573 7.69466 9.10576 7.69468 9.10578L11.6465 13.0566Z" fill="#C4BDDA" stroke="#C4BDDA"/>
</svg>
