<svg width="25" height="25" viewBox="0 0 25 25" fill="none" xmlns="http://www.w3.org/2000/svg">
<g filter="url(#filter0_i_640_676)">
<path d="M22.1804 8.662V8.735C22.1804 9.595 22.1804 10.026 21.9734 10.378C21.7664 10.73 21.3894 10.939 20.6374 11.358L19.8444 11.798C20.3904 9.95 20.5734 7.964 20.6404 6.266L20.6504 6.045L20.6524 5.993C21.3034 6.219 21.6694 6.388 21.8974 6.704C22.1804 7.097 22.1804 7.619 22.1804 8.662ZM2.18042 8.662V8.735C2.18042 9.595 2.18042 10.026 2.38742 10.378C2.59442 10.73 2.97142 10.939 3.72342 11.358L4.51742 11.798C3.97042 9.95 3.78742 7.964 3.72042 6.266L3.71042 6.045L3.70942 5.993C3.05742 6.219 2.69142 6.388 2.46342 6.704C2.18042 7.097 2.18042 7.62 2.18042 8.662Z" fill="#09031F"/>
<path fill-rule="evenodd" clip-rule="evenodd" d="M16.5574 2.84701C15.1106 2.60988 13.6465 2.49381 12.1804 2.50001C10.3974 2.50001 8.92743 2.65701 7.80343 2.84701C6.66443 3.03901 6.09543 3.13501 5.61943 3.72101C5.14443 4.30701 5.16943 4.94001 5.21943 6.20601C5.39243 10.554 6.33043 15.986 11.4304 16.466V20H10.0004C9.76933 20.0001 9.54542 20.0803 9.36676 20.2269C9.1881 20.3735 9.06572 20.5774 9.02043 20.804L8.83043 21.75H6.18043C5.98151 21.75 5.79075 21.829 5.6501 21.9697C5.50944 22.1103 5.43043 22.3011 5.43043 22.5C5.43043 22.6989 5.50944 22.8897 5.6501 23.0303C5.79075 23.171 5.98151 23.25 6.18043 23.25H18.1804C18.3793 23.25 18.5701 23.171 18.7108 23.0303C18.8514 22.8897 18.9304 22.6989 18.9304 22.5C18.9304 22.3011 18.8514 22.1103 18.7108 21.9697C18.5701 21.829 18.3793 21.75 18.1804 21.75H15.5304L15.3404 20.804C15.2951 20.5774 15.1728 20.3735 14.9941 20.2269C14.8154 20.0803 14.5915 20.0001 14.3604 20H12.9304V16.466C18.0304 15.986 18.9694 10.555 19.1414 6.20601C19.1914 4.94001 19.2174 4.30601 18.7414 3.72101C18.2654 3.13501 17.6964 3.03901 16.5574 2.84701Z" fill="#09031F"/>
</g>
<defs>
<filter id="filter0_i_640_676" x="0.18042" y="0.5" width="24" height="24" filterUnits="userSpaceOnUse" color-interpolation-filters="sRGB">
<feFlood flood-opacity="0" result="BackgroundImageFix"/>
<feBlend mode="normal" in="SourceGraphic" in2="BackgroundImageFix" result="shape"/>
<feColorMatrix in="SourceAlpha" type="matrix" values="0 0 0 0 0 0 0 0 0 0 0 0 0 0 0 0 0 0 127 0" result="hardAlpha"/>
<feOffset dy="1"/>
<feComposite in2="hardAlpha" operator="arithmetic" k2="-1" k3="1"/>
<feColorMatrix type="matrix" values="0 0 0 0 0.0889945 0 0 0 0 0.11058 0 0 0 0 0.138333 0 0 0 1 0"/>
<feBlend mode="normal" in2="shape" result="effect1_innerShadow_640_676"/>
</filter>
</defs>
</svg>
