<svg width="24" height="24" viewBox="0 0 24 24" fill="none" xmlns="http://www.w3.org/2000/svg">
<path d="M7.94687 20.457H7.947H16.017C16.6001 20.457 17.1774 20.3422 17.7161 20.119C18.2548 19.8959 18.7443 19.5688 19.1566 19.1566C19.5688 18.7443 19.8959 18.2548 20.119 17.7161C20.3422 17.1774 20.457 16.6001 20.457 16.017V7.948C20.457 6.77063 19.9894 5.64147 19.157 4.80884C18.3245 3.97622 17.1955 3.5083 16.0181 3.508H16.018H7.948C6.77063 3.508 5.64147 3.97563 4.80884 4.80805C3.97622 5.64047 3.5083 6.76951 3.508 7.94687V7.947V16.017C3.508 17.1944 3.97563 18.3235 4.80805 19.1562C5.64046 19.9888 6.76951 20.4567 7.94687 20.457ZM4.09711 4.09776C5.11832 3.07638 6.50297 2.50178 7.94729 2.5H16.0168C17.4611 2.50152 18.8458 3.07589 19.8672 4.09711C20.8887 5.11839 21.4633 6.50316 21.465 7.94759V16.0165C21.4635 17.4609 20.8892 18.8458 19.8679 19.8672C18.8466 20.8887 17.4618 21.4633 16.0174 21.465H7.9485C6.50408 21.4635 5.11921 20.8892 4.09776 19.8679C3.07638 18.8467 2.50178 17.462 2.5 16.0177V7.94824C2.50152 6.50391 3.07589 5.11915 4.09711 4.09776Z" fill="#C4BDDA" stroke="#C4BDDA"/>
<path d="M8.68749 8.68713C9.54131 7.83314 10.6919 7.34389 11.897 7.31992L11.9815 7.32C13.2181 7.32119 14.4036 7.81275 15.2782 8.68685C16.1526 9.56074 16.6449 10.7457 16.647 11.9819C16.6455 13.2184 16.1536 14.4038 15.2792 15.2782C14.4049 16.1525 13.2195 16.6444 11.9831 16.646C10.7468 16.6442 9.56163 16.1522 8.6875 15.2779C7.81337 14.4036 7.32161 13.2184 7.32001 11.982C7.32185 10.7461 7.81359 9.5612 8.68749 8.68713ZM9.39753 14.5675C10.083 15.2529 11.0126 15.638 11.982 15.638C12.9514 15.638 13.881 15.2529 14.5665 14.5675C15.2519 13.882 15.637 12.9524 15.637 11.983C15.637 11.0136 15.2519 10.084 14.5665 9.39853C13.881 8.71308 12.9514 8.328 11.982 8.328C11.0126 8.328 10.083 8.71308 9.39753 9.39853C8.71209 10.084 8.32701 11.0136 8.32701 11.983C8.32701 12.9524 8.71209 13.882 9.39753 14.5675Z" fill="#C4BDDA" stroke="#C4BDDA"/>
<path d="M17.893 6.858C17.893 7.26503 17.563 7.595 17.156 7.595C16.749 7.595 16.419 7.26503 16.419 6.858C16.419 6.45097 16.749 6.121 17.156 6.121C17.563 6.121 17.893 6.45097 17.893 6.858Z" fill="#C4BDDA" stroke="#C4BDDA"/>
</svg>
