<svg width="30" height="31" viewBox="0 0 30 31" fill="none" xmlns="http://www.w3.org/2000/svg">
<path d="M21.3125 25.85C20.0875 27.0375 18.75 26.85 17.4625 26.2875C16.1 25.7125 14.85 25.6875 13.4125 26.2875C11.6125 27.0625 10.6625 26.8375 9.5875 25.85C3.4875 19.5625 4.3875 9.9875 11.3125 9.6375C13 9.725 14.175 10.5625 15.1625 10.6375C16.6375 10.3375 18.05 9.475 19.625 9.5875C21.5125 9.7375 22.9375 10.4875 23.875 11.8375C19.975 14.175 20.9 19.3125 24.475 20.75C23.7625 22.625 22.8375 24.4875 21.3 25.8625L21.3125 25.85ZM15.0375 9.5625C14.85 6.775 17.1125 4.475 19.7125 4.25C20.075 7.475 16.7875 9.875 15.0375 9.5625Z" fill="white"/>
</svg>
