<svg width="30" height="31" viewBox="0 0 30 31" fill="none" xmlns="http://www.w3.org/2000/svg">
<g clip-path="url(#clip0_640_285)">
<path d="M25.3125 22.4843C25.3125 28.1562 20.7188 28.1562 15 28.1562C9.28125 28.1562 4.6875 28.1562 4.6875 22.4843C4.6875 16.8125 9.32812 7.53122 15 7.53122C20.6719 7.53122 25.3125 16.7656 25.3125 22.4843Z" fill="#68BFFF"/>
<path opacity="0.5" d="M25.3124 22.4843C25.3124 20.5624 24.7968 18.2187 23.8593 15.9687C24.0468 17.4218 23.6718 19.9999 19.2187 20.9843C12.8906 22.3437 16.1718 24.1249 13.6874 24.3593C11.5781 24.5468 5.95306 23.7031 4.82806 20.5156C4.73431 21.2187 4.64056 21.8749 4.64056 22.5312C4.68744 28.1562 9.32806 28.1562 14.9999 28.1562C20.6718 28.1562 25.3124 28.1562 25.3124 22.4843Z" fill="#2930E2"/>
<path d="M17.7656 19.7656C17.5781 18.8281 16.7812 18.5469 15.9375 18.5V17.1875C16.1718 17.2812 16.4531 17.4219 16.6406 17.5625C17.0156 17.7969 17.3906 17.1875 17.0156 16.9531C16.6875 16.7656 16.3125 16.5781 15.9375 16.4375V14.8906C15.9375 14.4219 15.2343 14.4219 15.2343 14.8906V16.25C14.8593 16.2031 14.4843 16.2031 14.1093 16.25C14.0625 15.9219 13.9687 15.5937 13.875 15.2656C13.7812 14.7969 13.0781 14.9844 13.2187 15.4531C13.3125 15.7812 13.3594 16.1094 13.4531 16.4375C13.4062 16.4375 13.4062 16.4375 13.3593 16.4844C12.4218 16.8594 11.8125 17.7969 12.5156 18.6875C12.8437 19.1094 13.2656 19.25 13.7343 19.3438C13.7812 19.9531 13.7812 20.5625 13.7812 21.1719C13.4531 20.9844 13.1718 20.7031 12.9375 20.4687C12.6093 20.1406 12.1406 20.6563 12.4218 20.9844C12.8437 21.4531 13.3125 21.7813 13.7812 22.0156C13.7812 22.5313 13.8281 23.0469 13.875 23.5625C13.9218 24.0313 14.625 24.0313 14.5781 23.5625C14.5312 23.0938 14.4843 22.6719 14.4843 22.2031C14.7656 22.25 15.0469 22.25 15.3281 22.25C15.375 22.7188 15.4218 23.1875 15.4687 23.7031C15.5156 24.1719 16.2187 24.1719 16.1718 23.7031C16.125 23.1875 16.0781 22.6719 16.0312 22.1094C17.0625 21.7344 18 20.9375 17.7656 19.7656ZM15.2343 16.9531V18.5C15 18.5 14.8125 18.5469 14.625 18.5469H14.3906L14.25 16.8594C14.5781 16.8594 14.9062 16.9062 15.2343 16.9531ZM13.5468 18.4531C13.3593 18.4062 13.1719 18.2656 12.9844 18.125C12.5625 17.7031 13.1718 17.3281 13.5468 17.1406C13.5937 17.6094 13.6406 18.0313 13.6875 18.5C13.6406 18.5 13.5937 18.5 13.5468 18.4531ZM15.0937 21.4531C14.8594 21.5 14.6718 21.4531 14.4843 21.4062C14.4375 20.7031 14.4375 20 14.4375 19.25C14.7187 19.25 15 19.2031 15.2812 19.2031C15.2812 19.9531 15.3281 20.6562 15.3281 21.4062C15.2344 21.4531 15.1875 21.4531 15.0937 21.4531ZM16.6406 20.9375C16.4531 21.0781 16.2187 21.1719 16.0312 21.2656C15.9844 20.5625 15.9843 19.9063 15.9843 19.2031H16.2187C17.1093 19.3906 17.3437 20.375 16.6406 20.9375Z" fill="#2930E2"/>
<path d="M15.9375 26.2812H14.8594V28.1562L19.2188 30.5L29.0625 27.4531V25.8125L25.4532 23.7031L15.9375 26.2812Z" fill="#35965C"/>
<path d="M15 25.2031C15 25.2031 16.125 27.0312 19.3125 28.625C19.3125 28.625 24.2812 28.3906 29.0625 25.2031C29.0625 25.2031 26.2969 23.8438 25.5 22.0625C25.5 22.0625 23.625 24.6875 15 25.2031Z" fill="#4FBF7C"/>
<path d="M12.8906 26.2343L13.9219 26.1875L14.0625 27.9218L9.98437 30.5L0.1875 28.3906L0.046875 26.8437L3.375 24.5468L12.8906 26.2343Z" fill="#35965C"/>
<path d="M13.6875 25.1562C13.6875 25.1562 12.7031 26.9843 9.75 28.7187C9.75 28.7187 4.92188 28.8593 0 26.2812C0 26.2812 2.625 24.7812 3.23438 22.9999C3.23438 22.9999 5.29688 25.3437 13.6875 25.1562Z" fill="#4FBF7C"/>
<path d="M11.3438 25.6719C11.3438 25.6719 11.2031 26.0469 11.8594 26.0938L10.125 27.5469C10.125 27.5469 9.09375 27.4531 8.85937 28.1563C8.85937 28.1563 4.64063 27.6875 1.92187 26.4688C1.92187 26.4688 2.48438 26.0469 1.78125 25.7656C1.78125 25.7656 2.57813 25.2031 2.76563 24.6875C2.76563 24.6875 3.51562 24.7813 3.75 24.2188C3.84375 24.1719 6.65625 25.8594 11.3438 25.6719Z" stroke="#35965C" stroke-width="0.46875" stroke-miterlimit="10"/>
<path d="M4.125 26.3281C4.61688 26.3281 5.01562 26.0553 5.01562 25.7187C5.01562 25.3822 4.61688 25.1093 4.125 25.1093C3.63312 25.1093 3.23438 25.3822 3.23438 25.7187C3.23438 26.0553 3.63312 26.3281 4.125 26.3281Z" fill="#35965C"/>
<path d="M8.90625 24.9687C8.90625 24.9687 7.82812 26.375 5.48437 28.2969L5.625 29.5625L3.98437 29.1875L3.89062 27.8281C3.89062 27.8281 6.28125 25.625 6.79687 24.5469C6.75 24.5469 7.59375 24.8281 8.90625 24.9687ZM19.7344 24.6406C19.7344 24.6406 20.1562 25.7656 23.3437 27.8281V29.1875L25.1719 28.625V27.2187C25.1719 27.2187 22.9688 25.6719 21.6562 24.125L19.7344 24.6406Z" fill="#D8F1FF"/>
<path d="M17.0625 23.1406L16.0313 23.0937L15.9375 25.0156L20.1094 27.6874L29.9062 25.0156L29.9531 23.3281L26.5312 20.9374L17.0625 23.1406Z" fill="#35965C"/>
<path d="M16.2188 21.9687C16.2188 21.9687 17.25 23.9375 20.2969 25.7187C20.2969 25.7187 25.1719 25.7187 30 22.7187C30 22.7187 27.3281 21.1718 26.6719 19.25C26.6719 19.25 24.6562 21.875 16.2188 21.9687Z" fill="#4FBF7C"/>
<path d="M18.3281 22.4843C18.3281 22.4843 18.5625 22.8593 17.8125 23L19.7812 24.5468C19.7812 24.5468 20.9062 24.2656 21.2812 24.9218C21.2812 24.9218 25.9687 24.0781 28.125 22.9531C28.125 22.9531 27.4218 22.625 28.125 22.2031C28.125 22.2031 27.2812 21.5 26.9531 21.0312C26.9531 21.0312 26.1562 21.2656 25.7343 20.7031C25.7343 20.75 24.0468 22.25 18.3281 22.4843Z" stroke="#35965C" stroke-width="0.46875" stroke-miterlimit="10"/>
<path d="M21.9375 23.6562C21.75 23.8906 21.1407 23.9843 20.625 23.8437C20.1094 23.7031 19.875 23.375 20.0625 23.1406C20.25 22.9062 20.8594 22.8125 21.375 22.9531C21.8907 23.0937 22.125 23.375 21.9375 23.6562Z" fill="#35965C"/>
<path d="M20.9999 21.5937C20.9999 21.5937 22.1249 23.0937 24.5156 25.1093L24.4687 26.5156L26.1093 26.0468L26.1562 24.5468C26.1562 24.5468 23.7187 22.2031 23.1093 21.0781C23.1562 21.0781 22.3593 21.4062 20.9999 21.5937Z" fill="#D8F1FF"/>
<path d="M21.5625 1.43747C21.5625 4.29684 17.8593 8.93747 15 8.93747C12.1406 8.93747 8.43747 4.76559 8.43747 1.90622C8.43747 -0.953156 8.85934 1.90622 11.7187 1.90622C12.1406 1.90622 14.1093 0.499969 15 0.499969C15.6093 0.499969 17.3437 1.90622 18.2812 1.90622C20.7656 1.90622 21.5625 -0.718781 21.5625 1.43747Z" fill="#68BFFF"/>
<path d="M14.1563 6.73435C13.875 6.92185 12.5156 6.78123 12.0938 7.10935C11.5313 7.53123 12.3281 8.5156 11.7656 9.12498C10.6406 10.25 9.75001 11.5156 10.0313 12.2187C10.5 13.4375 11.3906 9.96873 12.1875 11.2812C12.9844 12.5937 12.8438 10.3906 14.0625 11.5156C15.2813 12.6406 14.25 9.49998 15.4219 10.8594C16.5938 12.2187 16.6406 13.7656 17.4844 13.7656C18.4688 13.7656 16.4531 10.0625 17.7656 10.9531C19.0781 11.8437 20.5313 11.5156 19.2188 10.1562C18.7969 9.73435 18.2344 8.98435 17.5781 8.3281C17.3438 8.09373 17.5313 6.87498 17.2969 6.68748C17.0156 6.4531 16.3125 7.2031 16.0313 7.06248C15.4688 6.78123 15.6563 7.29685 14.8125 7.43748C14.25 7.62498 14.7188 6.35935 14.1563 6.73435Z" fill="#2930E2"/>
<path d="M8.76561 9.49998C10.5937 7.7656 13.9219 8.74998 15.8906 9.59373C17.8125 10.4375 18.9844 7.7656 17.7656 6.40623C17.0625 5.60935 15.9375 6.54685 15.5156 7.10935C15.0469 7.67185 14.6719 8.28123 14.1562 8.84373C13.4062 9.68748 11.5781 8.98435 12.1406 7.81248C12.75 6.59373 15.3281 7.99998 16.1719 8.23435C17.8125 8.7031 19.5469 8.8906 21.1875 8.28123C21.75 8.09373 21.5156 7.15623 20.9531 7.3906C19.125 8.04685 17.2969 7.62498 15.5625 7.06248C14.6719 6.78123 13.2656 6.03123 12.3281 6.4531C9.65623 7.71873 12.1406 11.3281 14.3906 9.92185C14.9062 9.59373 15.2344 9.0781 15.6094 8.60935C15.8437 8.3281 17.0156 6.54685 17.2969 7.43748C17.4375 7.90623 17.2969 8.74998 16.7812 8.8906C16.4531 9.03123 15.7969 8.56248 15.4687 8.46873C14.8594 8.23435 14.25 8.04685 13.5937 7.90623C11.8594 7.53123 9.51561 7.62498 8.15623 8.8906C7.68748 9.2656 8.34373 9.92185 8.76561 9.49998Z" fill="#E8E8E8"/>
<path d="M21 0.734344C20.5312 1.10934 19.6875 1.90622 18.2812 1.90622C17.3438 1.90622 15.6094 0.499969 15 0.499969C14.1094 0.499969 12.1406 1.90622 11.7188 1.90622C10.1719 1.90622 9.32812 1.10934 8.90625 0.781219C8.90625 0.781219 9.42187 2.89059 11.0156 3.96872C12.1875 4.71872 12.0469 3.82809 12.6562 2.98434C13.2656 2.14059 13.6875 1.71872 14.7656 3.82809C15.3281 4.99997 16.4062 0.640594 17.25 2.04684C18.7969 4.62497 19.3594 3.21872 21 0.734344Z" fill="#2930E2"/>
<path d="M24.5625 25.0625L24.5156 26.4688L26.1562 26L26.2031 24.5C26.2031 24.5469 25.2187 24.9219 24.5625 25.0625ZM23.3437 27.875V29.2344L25.1719 28.6719V27.2657C25.125 27.2188 24.6562 27.5 23.3437 27.875ZM5.48435 28.25L5.62498 29.5625L3.98435 29.1875L3.8906 27.8282C3.84373 27.8282 4.49998 28.0625 5.48435 28.25Z" fill="#68BFFF"/>
</g>
<defs>
<clipPath id="clip0_640_285">
<rect width="30" height="30" fill="white" transform="translate(0 0.5)"/>
</clipPath>
</defs>
</svg>
