<svg width="18" height="19" viewBox="0 0 18 19" fill="none" xmlns="http://www.w3.org/2000/svg">
<path d="M9.81568 9.21165L10.0807 9.47678L9.81568 9.74191L6.85243 12.7059L6.8526 12.7061L6.84288 12.7151C6.7913 12.7632 6.74992 12.8212 6.72123 12.8856C6.69254 12.95 6.67711 13.0195 6.67586 13.09C6.67462 13.1605 6.68759 13.2305 6.71399 13.2958C6.7404 13.3612 6.7797 13.4206 6.82955 13.4705C6.8794 13.5203 6.93879 13.5596 7.00416 13.586C7.06953 13.6124 7.13955 13.6254 7.21004 13.6241C7.28053 13.6229 7.35005 13.6075 7.41445 13.5788C7.47885 13.5501 7.53681 13.5087 7.58488 13.4571L7.58471 13.457L7.59407 13.4476L11.1939 9.84778C11.2922 9.74934 11.3474 9.6159 11.3474 9.47678C11.3474 9.33765 11.2922 9.20422 11.1939 9.10578L7.59423 5.50611C7.59422 5.50609 7.5942 5.50608 7.59419 5.50606C7.49575 5.40778 7.36234 5.35257 7.22323 5.35257C7.08418 5.35257 6.95081 5.40774 6.85238 5.50596C6.75418 5.60438 6.69902 5.73774 6.69902 5.87678C6.69902 6.01584 6.7542 6.14922 6.85243 6.24765C6.85245 6.24767 6.85247 6.24769 6.85249 6.24771C6.85251 6.24773 6.85254 6.24775 6.85256 6.24778L9.81568 9.21165Z" fill="#C4BDDA" stroke="#C4BDDA" stroke-width="0.75"/>
</svg>
