<svg width="25" height="25" viewBox="0 0 25 25" fill="none" xmlns="http://www.w3.org/2000/svg">
<path d="M17.6006 19.8131H10.0839C9.44758 19.8131 8.8373 19.5603 8.38734 19.1103C7.93739 18.6604 7.6846 18.0501 7.6846 17.4138V9.89705C7.6846 9.26071 7.93739 8.65044 8.38734 8.20048C8.8373 7.75052 9.44758 7.49774 10.0839 7.49774H17.6006C18.237 7.49774 18.8472 7.75052 19.2972 8.20048C19.7472 8.65044 19.9999 9.26071 19.9999 9.89705V17.4138C19.9999 18.0501 19.7472 18.6604 19.2972 19.1103C18.8472 19.5603 18.237 19.8131 17.6006 19.8131Z" fill="#160F3B" stroke="#160F3B" stroke-width="0.0335568"/>
<path d="M6.57722 9.09166V16.9832C6.11924 16.8155 5.7229 16.5124 5.4411 16.1139C5.15471 15.7089 5.00065 15.2252 5.00005 14.7292L5.00005 7.21248C5.00005 6.57614 5.25284 5.96587 5.7028 5.51591C6.15275 5.06595 6.76303 4.81317 7.39937 4.81317H14.9161C15.4121 4.81377 15.8958 4.96782 16.3008 5.25421C16.6993 5.53601 17.0024 5.93235 17.17 6.39033H9.27855C8.56211 6.39033 7.87502 6.67494 7.36842 7.18153C6.86183 7.68813 6.57722 8.37522 6.57722 9.09166Z" fill="#160F3B" stroke="#160F3B" stroke-width="0.0335568"/>
</svg>
