<svg width="24" height="24" viewBox="0 0 24 24" fill="none" xmlns="http://www.w3.org/2000/svg">
<g clip-path="url(#clip0_596_29808)">
<path d="M16.349 10.359L16.3489 10.3592C16.0737 10.6256 15.7718 10.9156 15.4549 11.22C14.612 12.0294 13.6629 12.9409 12.829 13.7839C12.2555 14.3635 11.7451 14.9023 11.3668 15.3459C11.1773 15.568 11.0271 15.7592 10.9202 15.9149C10.8669 15.9926 10.8279 16.0564 10.8012 16.1068C10.7879 16.1317 10.7789 16.1511 10.7729 16.1655C10.7676 16.1782 10.7658 16.1845 10.7656 16.1851C10.7493 16.2509 10.7574 16.3866 10.8978 16.6206C11.0339 16.8473 11.2543 17.098 11.5257 17.3528C12.0661 17.8601 12.7263 18.308 13.0618 18.5276C14.4051 19.4057 15.9034 20.2502 16.9167 20.8006C17.8198 21.2911 18.9114 20.7326 19.0777 19.7317L16.349 10.359ZM16.349 10.359C16.5705 10.1443 16.7421 9.924 16.8397 9.70919C16.9184 9.5358 17.0333 9.16156 16.7621 8.86485C16.499 8.57691 16.1219 8.64152 15.9372 8.69679C15.7079 8.76543 15.458 8.90598 15.1997 9.10096C12.897 10.8396 9.21911 13.4685 8.021 14.1979C7.49972 14.5151 7.13654 14.6797 6.84369 14.7579C6.56441 14.8326 6.32913 14.8341 6.05122 14.7878L6.05109 14.7878C4.85576 14.5889 3.75649 14.2821 2.86962 13.9142L2.86954 13.9141C2.05138 13.5749 2.06236 12.4314 2.87105 12.0908C2.87106 12.0908 2.87107 12.0908 2.87108 12.0908L19.971 4.89084L16.349 10.359ZM21.3456 5.97484L19.0778 19.7312L19.971 4.89082C20.1358 4.8215 20.3161 4.79759 20.4932 4.82159C20.6703 4.84559 20.8378 4.91662 20.9781 5.0273C21.1185 5.13798 21.2266 5.28425 21.2912 5.4509C21.3558 5.61749 21.3746 5.79835 21.3457 5.97467C21.3457 5.97473 21.3457 5.97479 21.3456 5.97484Z" fill="#C4BDDA" stroke="#C4BDDA"/>
</g>
<defs>
<clipPath id="clip0_596_29808">
<rect width="24" height="24" fill="white"/>
</clipPath>
</defs>
</svg>
