<svg width="46" height="46" viewBox="0 0 46 46" fill="none" xmlns="http://www.w3.org/2000/svg">
<mask id="mask0_596_29992" style="mask-type:luminance" maskUnits="userSpaceOnUse" x="3" y="4" width="39" height="38">
<path d="M41.3857 22.7949C41.3857 12.4396 32.9911 4.04492 22.6357 4.04492C12.2804 4.04492 3.88571 12.4396 3.88571 22.7949C3.88571 33.1503 12.2804 41.5449 22.6357 41.5449C32.9911 41.5449 41.3857 33.1503 41.3857 22.7949Z" fill="white"/>
</mask>
<g mask="url(#mask0_596_29992)">
<path d="M22.6357 41.5449C32.9911 41.5449 41.3857 33.1503 41.3857 22.7949C41.3857 12.4396 32.9911 4.04492 22.6357 4.04492C12.2804 4.04492 3.88571 12.4396 3.88571 22.7949C3.88571 33.1503 12.2804 41.5449 22.6357 41.5449Z" fill="#EDF0F4"/>
<path d="M16.9893 22.6997C16.936 23.6264 17.6493 24.4196 18.5759 24.4729C18.6093 24.4729 18.6426 24.4729 18.6758 24.4729C19.6091 24.4729 20.3625 23.7197 20.3558 22.7864C20.3558 21.8531 19.6026 21.0998 18.6693 21.1065C17.776 21.1065 17.0359 21.8065 16.9893 22.6997Z" fill="#0033AD"/>
<path d="M10.7096 22.2644C10.4096 22.2443 10.1496 22.4777 10.1363 22.7777C10.1229 23.0777 10.3496 23.3376 10.6496 23.3509C10.9496 23.371 11.2029 23.1377 11.2229 22.8377C11.2429 22.5377 11.0096 22.2843 10.7096 22.2644Z" fill="#0033AD"/>
<path d="M16.8826 12.9262C17.1492 12.7929 17.2559 12.4595 17.1226 12.1929C16.9893 11.9262 16.656 11.8196 16.3893 11.9529C16.1227 12.0862 16.016 12.4129 16.1493 12.6795C16.2826 12.9529 16.6093 13.0662 16.8826 12.9262Z" fill="#0033AD"/>
<path d="M18.5892 15.906C19.0024 15.6994 19.1692 15.1927 18.9624 14.7794C18.7558 14.3661 18.2491 14.1994 17.8358 14.4061C17.4225 14.6127 17.2558 15.1194 17.4626 15.5327C17.6692 15.9461 18.1759 16.1127 18.5892 15.906Z" fill="#0033AD"/>
<path d="M12.8429 17.9525C13.1628 18.1593 13.5895 18.0725 13.8028 17.7526C14.0095 17.4326 13.9228 17.0059 13.6028 16.7926C13.2828 16.586 12.8562 16.6726 12.6429 16.9927C12.4295 17.3126 12.5229 17.7459 12.8429 17.9525Z" fill="#0033AD"/>
<path d="M13.8627 21.9653C13.3961 21.9386 13.0028 22.2919 12.9761 22.7585C12.9494 23.2252 13.3028 23.6186 13.7694 23.6452C14.2361 23.6719 14.6294 23.3186 14.656 22.8519C14.6827 22.392 14.3294 21.9919 13.8627 21.9653Z" fill="#0033AD"/>
<path d="M12.9362 27.6111C12.5962 27.7845 12.4562 28.1978 12.6296 28.5444C12.8029 28.8844 13.2162 29.0244 13.5628 28.8511C13.9028 28.6778 14.0428 28.2645 13.8695 27.9178C13.6962 27.5777 13.2762 27.4378 12.9362 27.6111Z" fill="#0033AD"/>
<path d="M16.2027 20.2264C16.6626 20.5264 17.276 20.3998 17.5693 19.9398C17.8693 19.4798 17.7426 18.8665 17.2827 18.5732C16.8227 18.2732 16.2094 18.3998 15.916 18.8598C15.616 19.3131 15.7427 19.9264 16.2027 20.2264Z" fill="#0033AD"/>
<path d="M26.5688 15.8395C26.9554 16.0927 27.482 15.9861 27.7354 15.5994C27.9888 15.2128 27.882 14.6861 27.4954 14.4328C27.1088 14.1795 26.5822 14.2862 26.3288 14.6728C26.0688 15.0661 26.1755 15.5861 26.5688 15.8395Z" fill="#0033AD"/>
<path d="M28.2888 12.8727C28.5422 13.0394 28.8755 12.9661 29.0422 12.7127C29.2089 12.4594 29.1355 12.1261 28.8822 11.9595C28.6289 11.7928 28.2955 11.8661 28.1289 12.1128C27.9689 12.3661 28.0423 12.7061 28.2888 12.8727Z" fill="#0033AD"/>
<path d="M26.6956 21.0936C25.7689 21.0403 24.9689 21.7536 24.9223 22.6802C24.869 23.6068 25.5823 24.4068 26.5089 24.4535C26.5422 24.4535 26.5756 24.4535 26.6022 24.4535C27.5288 24.4535 28.2822 23.7001 28.2822 22.7668C28.2887 21.8802 27.5888 21.1403 26.6956 21.0936Z" fill="#0033AD"/>
<path d="M19.1427 20.1053C19.4293 20.6719 20.0093 21.0319 20.6492 21.0319C21.5758 21.0319 22.3291 20.2786 22.3291 19.3453C22.3291 19.0853 22.2691 18.8254 22.1491 18.5854C21.7292 17.7521 20.7159 17.4188 19.8893 17.8388C19.056 18.2653 18.7227 19.2787 19.1427 20.1053Z" fill="#0033AD"/>
<path d="M32.3353 17.9513C32.6753 17.7779 32.8086 17.3579 32.6353 17.018C32.462 16.678 32.042 16.5447 31.702 16.718C31.362 16.8913 31.2287 17.3046 31.3953 17.6447C31.5753 17.9847 31.9886 18.1246 32.3353 17.9513Z" fill="#0033AD"/>
<path d="M28.0688 18.4852C27.5821 18.7318 27.3822 19.3252 27.6289 19.8118C27.8754 20.2985 28.4688 20.4984 28.9554 20.2518C29.4421 20.0052 29.642 19.4119 29.3954 18.9252C29.1488 18.4385 28.5555 18.2453 28.0688 18.4852Z" fill="#0033AD"/>
<path d="M22.5691 12.6195C22.949 12.6395 23.2758 12.3462 23.3024 11.9662C23.3291 11.5862 23.0291 11.2596 22.649 11.2329C22.2691 11.2129 21.9424 11.4996 21.9158 11.8796C21.8958 12.2662 22.1891 12.5929 22.5691 12.6195Z" fill="#0033AD"/>
<path d="M22.5623 16.9732C23.109 17.0064 23.5757 16.5865 23.6023 16.0399C23.6357 15.4932 23.2157 15.0266 22.669 14.9999C22.1224 14.9666 21.6557 15.3865 21.6291 15.9332C21.6023 16.4798 22.0157 16.9464 22.5623 16.9732Z" fill="#0033AD"/>
<path d="M17.2026 27.0785C17.6893 26.8318 17.8893 26.2385 17.6426 25.7518C17.396 25.2652 16.8026 25.0652 16.3161 25.3119C15.8294 25.5585 15.6294 26.1518 15.876 26.6384C16.1227 27.1251 16.716 27.325 17.2026 27.0785Z" fill="#0033AD"/>
<path d="M23.2024 18.4206C22.6958 19.2006 22.9091 20.2405 23.6891 20.7472C24.4689 21.2538 25.509 21.0406 26.0156 20.2606C26.5222 19.4806 26.3089 18.4406 25.5289 17.934C25.2556 17.754 24.9356 17.6606 24.609 17.6606C24.0424 17.6606 23.5157 17.9474 23.2024 18.4206Z" fill="#0033AD"/>
<path d="M26.1291 25.4579C25.7091 24.6246 24.6958 24.2913 23.8691 24.7113C23.0358 25.1313 22.7025 26.1445 23.1225 26.9712C23.5425 27.8045 24.5557 28.1378 25.3824 27.7179C26.209 27.3046 26.549 26.3046 26.1356 25.4713C26.1356 25.4646 26.1356 25.4646 26.1291 25.4579Z" fill="#0033AD"/>
<path d="M29.0688 25.3402C28.6088 25.0402 27.9956 25.1669 27.7023 25.6269C27.4023 26.087 27.529 26.7002 27.9889 26.9935C28.4489 27.2935 29.0621 27.1668 29.3554 26.7069C29.6554 26.2536 29.5288 25.6402 29.0688 25.3402Z" fill="#0033AD"/>
<path d="M32.2953 22.8124C32.3219 22.3457 31.9685 21.9523 31.5019 21.9257C31.0353 21.899 30.642 22.2523 30.6154 22.719C30.5887 23.1856 30.942 23.579 31.4086 23.6056C31.8686 23.6323 32.2685 23.2723 32.2953 22.8124Z" fill="#0033AD"/>
<path d="M34.622 22.2131C34.322 22.1931 34.062 22.4264 34.0486 22.7264C34.0354 23.0264 34.262 23.2864 34.562 23.2997C34.862 23.3197 35.1152 23.0864 35.1353 22.7864C35.1486 22.4864 34.922 22.2332 34.622 22.2131Z" fill="#0033AD"/>
<path d="M32.4287 27.6125C32.1088 27.4058 31.6821 27.4925 31.4687 27.8124C31.2621 28.1325 31.3488 28.5591 31.6688 28.7724C31.9888 28.979 32.4154 28.8924 32.6288 28.5724C32.842 28.2525 32.7488 27.8191 32.4287 27.6125Z" fill="#0033AD"/>
<path d="M16.9759 32.6923C16.7227 32.5257 16.3893 32.5991 16.2226 32.8456C16.056 33.099 16.1294 33.4323 16.3759 33.599C16.6293 33.7657 16.9626 33.6923 17.1293 33.4456C17.3026 33.1989 17.2293 32.859 16.9759 32.6923Z" fill="#0033AD"/>
<path d="M28.3888 32.6393C28.1221 32.7727 28.0154 33.1059 28.1488 33.3725C28.2822 33.6393 28.6154 33.7459 28.882 33.6125C29.1488 33.4793 29.2554 33.1526 29.122 32.886C28.9888 32.6126 28.6621 32.4993 28.3888 32.6393Z" fill="#0033AD"/>
<path d="M22.069 27.1463C22.5757 26.3663 22.3623 25.3264 21.5824 24.8131C20.8024 24.3064 19.7625 24.5198 19.2491 25.2997C18.7358 26.0797 18.9558 27.1196 19.7358 27.6329C20.0092 27.8129 20.3291 27.9063 20.6557 27.9063C21.2291 27.9129 21.7558 27.6263 22.069 27.1463Z" fill="#0033AD"/>
<path d="M18.7026 29.7258C18.316 29.4725 17.7894 29.5791 17.536 29.9658C17.2827 30.3524 17.3893 30.8791 17.776 31.1324C18.1626 31.3858 18.6893 31.279 18.9426 30.8924C19.2027 30.5058 19.0959 29.9792 18.7026 29.7258Z" fill="#0033AD"/>
<path d="M22.6291 32.9448C22.2491 32.9248 21.9225 33.2181 21.8957 33.5981C21.8691 33.9781 22.1691 34.3048 22.5491 34.3314C22.9291 34.3514 23.2557 34.0648 23.2824 33.6847C23.3023 33.2981 23.009 32.9714 22.6291 32.9448Z" fill="#0033AD"/>
<path d="M22.6357 28.5922C22.0891 28.5588 21.6224 28.9788 21.5957 29.5255C21.5624 30.0722 21.9824 30.5388 22.5291 30.5654C23.0757 30.5921 23.5423 30.1788 23.569 29.6321C23.6023 29.0921 23.1823 28.6188 22.6357 28.5922Z" fill="#0033AD"/>
<path d="M26.6822 29.659C26.2689 29.8723 26.1022 30.379 26.3155 30.7923C26.5288 31.2056 27.0355 31.3723 27.4488 31.1589C27.8622 30.9523 28.0288 30.4457 27.8221 30.0323C27.6088 29.619 27.1022 29.4457 26.6822 29.659Z" fill="#0033AD"/>
</g>
</svg>
