<svg width="45" height="46" viewBox="0 0 45 46" fill="none" xmlns="http://www.w3.org/2000/svg">
<path d="M6.37916 13.1633C6.97785 12.3274 7.53489 11.4618 8.20913 10.6789C9.42321 9.2589 10.8413 8.02692 12.4169 7.02315C13.8445 6.11664 15.3497 5.40216 16.9601 4.90231C19.4405 4.12992 22.0556 3.88746 24.6358 4.19065C26.542 4.4081 28.3783 4.89525 30.1278 5.68315C31.1868 6.16041 32.1823 6.74922 33.158 7.38604C35.1249 8.66886 36.7007 10.3379 38.0182 12.2455C39.4252 14.283 40.3395 16.55 40.8408 18.9808C41.1938 20.6879 41.342 22.4113 41.1909 24.1459C41.0046 26.2844 40.5294 28.3467 39.642 30.3277C38.8922 32.0038 37.9659 33.5429 36.7798 34.933C35.6191 36.2928 34.3109 37.4831 32.8071 38.4631C31.7834 39.1316 30.7159 39.7275 29.5898 40.1702C27.7048 40.9115 25.7492 41.4121 23.7039 41.4996C22.2636 41.561 20.8318 41.537 19.4113 41.285C18.1914 41.072 16.9936 40.7471 15.8333 40.3142C14.7023 39.8899 13.6051 39.3865 12.5941 38.7504C11.1373 37.829 9.81208 36.7144 8.65462 35.4371C7.35974 34.0217 6.29142 32.4147 5.48747 30.673C4.34586 28.2005 3.78317 25.594 3.7507 22.8737C3.73799 21.8507 3.85589 20.8355 3.99215 19.8231C4.00204 19.7503 3.99215 19.6755 3.99074 19.6014C4.11076 19.528 4.09946 19.398 4.12135 19.2851C4.42732 17.7022 4.93409 16.1648 5.62938 14.7102C5.87507 14.1927 6.21395 13.7196 6.37916 13.1633ZM28.2583 23.2098C28.7666 22.9401 29.2488 22.7862 29.6301 22.4452C31.0986 21.1327 31.4904 18.0439 29.1062 16.5557C28.3628 16.0925 27.5707 15.7487 26.7164 15.3978C26.8576 14.2541 27.3151 13.1838 27.4634 12.0118C26.7588 11.8374 26.0986 11.6058 25.4117 11.531L24.5821 14.7801C24.0562 14.6191 23.5139 14.6339 23.0183 14.355C23.1969 13.2374 23.622 12.1904 23.7385 11.0686C23.0141 10.9556 22.4006 10.6732 21.6981 10.6429L20.8763 13.9215C19.4826 13.7076 18.2027 13.2283 16.797 12.9706C16.4885 13.6624 16.3522 14.3932 16.228 15.1698C16.6854 15.2778 17.0836 15.3731 17.4825 15.4663C18.4893 15.6986 18.7653 16.2493 18.526 17.1296C18.3566 17.7559 18.2027 18.3863 18.0459 19.0168C17.4832 21.2817 16.9255 23.5473 16.3593 25.8107C16.2322 26.3204 15.9145 26.4871 15.3963 26.4108C14.8865 26.3367 14.4058 26.1072 13.8438 26.1242C13.6002 26.9036 13.1159 27.5898 12.9443 28.4498L16.9318 29.4657C16.8295 30.6469 16.3402 31.7278 16.1955 32.9167L18.1794 33.3925C18.6185 32.3017 18.7195 31.1559 19.1289 30.0277C19.6224 30.2811 20.1696 30.2077 20.6518 30.5268L19.8611 33.7942C20.56 34.0442 21.2399 34.1458 21.9396 34.3202L22.7613 31.0281C22.8835 30.9622 23.0265 30.9463 23.1602 30.9836C24.2567 31.2187 25.3651 31.2731 26.4749 31.1502C27.4351 31.0436 28.2873 30.6772 28.9714 29.9564C29.7318 29.1544 30.1137 28.1737 30.298 27.1182C30.4476 26.2597 30.4088 25.3885 29.9047 24.6281C29.5094 24.0323 28.9657 23.5776 28.2583 23.2098ZM20.3348 27.6887C21.6868 28.024 23.0374 28.3834 24.4522 28.125C25.207 27.9873 25.7753 27.6026 26.0047 26.8436C26.2201 26.1277 26.0951 25.4775 25.5642 24.9113C25.0121 24.3232 24.3019 24.0175 23.5697 23.7612C22.6943 23.4562 21.8082 23.1787 20.8516 23.1032L19.7672 27.5122C19.9987 27.5849 20.1647 27.6463 20.3348 27.6887ZM25.1109 21.4504C25.8593 21.3445 26.4785 20.8496 26.6606 20.1775C26.8837 19.3557 26.6345 18.6349 25.9694 18.1442C25.2147 17.5878 24.3456 17.3047 23.4476 17.1085C23.1136 17.035 22.7839 16.8402 22.3794 16.9722L21.4009 20.9491C22.6787 21.2718 23.8564 21.629 25.1109 21.4504Z" fill="#F39321"/>
</svg>
