<svg width="46" height="46" viewBox="0 0 46 46" fill="none" xmlns="http://www.w3.org/2000/svg">
<path d="M23.3042 4.04492C33.6605 4.04492 42.0542 12.4403 42.0542 22.7949C42.0542 33.1512 33.6605 41.5449 23.3042 41.5449C12.9496 41.5449 4.55423 33.1504 4.55423 22.7949C4.55423 12.4403 12.9496 4.04492 23.3042 4.04492Z" fill="#F5AC37"/>
<path d="M23.9953 24.1195H31.12C31.2718 24.1195 31.3436 24.1195 31.3545 23.9204C31.4127 23.1956 31.4127 22.4666 31.3545 21.741C31.3545 21.6001 31.2845 21.5419 31.1318 21.5419H16.9524C16.7769 21.5419 16.7297 21.6001 16.7297 21.7646V23.8504C16.7297 24.1195 16.7297 24.1195 17.0106 24.1195H23.9953ZM30.5589 19.1042C30.5791 19.0511 30.5791 18.9929 30.5589 18.9406C30.4399 18.6815 30.299 18.4343 30.1353 18.2023C29.8889 17.8057 29.5987 17.4404 29.2679 17.1121C29.1121 16.9134 28.9308 16.7361 28.7288 16.5848C27.7141 15.7214 26.5092 15.1109 25.2128 14.8036C24.5589 14.6568 23.8906 14.5868 23.2207 14.5927H16.9279C16.7524 14.5927 16.7288 14.6627 16.7288 14.8154V18.9751C16.7288 19.1506 16.7288 19.1979 16.9516 19.1979H30.4745C30.4745 19.1979 30.5918 19.1743 30.6154 19.1042H30.558H30.5589ZM30.5589 26.5572C30.3597 26.5352 30.1589 26.5352 29.9598 26.5572H16.9642C16.7887 26.5572 16.7297 26.5572 16.7297 26.7917V30.8586C16.7297 31.046 16.7297 31.0932 16.9642 31.0932H22.9642C23.2511 31.1151 23.538 31.0949 23.8189 31.035C24.6897 30.9725 25.5461 30.7835 26.3629 30.4722C26.6599 30.3693 26.9467 30.2351 27.2176 30.0739H27.2994C28.7052 29.3437 29.8481 28.193 30.569 26.7824C30.569 26.7824 30.6508 26.6053 30.5589 26.5588V26.5572ZM14.3747 33.2018V26.7217C14.3747 26.569 14.3747 26.5462 14.1874 26.5462H11.6443C11.5034 26.5462 11.4452 26.5462 11.4452 26.3589V24.1322H14.1638C14.3157 24.1322 14.3747 24.1322 14.3747 23.9331V21.73C14.3747 21.5891 14.3747 21.5545 14.1874 21.5545H11.6443C11.5034 21.5545 11.4452 21.5545 11.4452 21.3672V19.3051C11.4452 19.176 11.4452 19.1414 11.6325 19.1414H14.152C14.3275 19.1414 14.3747 19.1414 14.3747 18.9186V12.6022C14.3747 12.4149 14.3747 12.3677 14.6093 12.3677H23.3979C24.0358 12.393 24.6694 12.463 25.2963 12.5786C26.5881 12.8174 27.8293 13.2789 28.9642 13.9379C29.7168 14.3809 30.4095 14.9158 31.0263 15.5318C31.4904 16.0136 31.9089 16.535 32.2801 17.0902C32.6489 17.653 32.9551 18.2546 33.1956 18.8832C33.21 18.962 33.2547 19.032 33.3202 19.0781C33.3857 19.1242 33.4667 19.1427 33.5458 19.1296H35.6434C35.9125 19.1296 35.9125 19.1296 35.9243 19.3877V21.3098C35.9243 21.4971 35.8543 21.5444 35.6661 21.5444H34.0486C33.885 21.5444 33.8377 21.5444 33.8495 21.7553C33.9136 22.4692 33.9136 23.1855 33.8495 23.8993C33.8495 24.0984 33.8495 24.1221 34.0731 24.1221H35.9235C36.0053 24.2275 35.9235 24.333 35.9235 24.4393C35.9353 24.5752 35.9353 24.7127 35.9235 24.8486V26.2669C35.9235 26.466 35.8653 26.5251 35.6889 26.5251H33.4741C33.3196 26.4956 33.1695 26.5943 33.134 26.7478C32.6062 28.1197 31.7631 29.3481 30.6728 30.3338C30.2745 30.6924 29.856 31.0299 29.4189 31.3413C28.9498 31.6113 28.4933 31.8922 28.0124 32.115C27.1273 32.5133 26.1992 32.8069 25.2466 32.9933C24.3417 33.1548 23.4234 33.2294 22.5043 33.2161H14.3714V33.2043L14.3747 33.2018Z" fill="#FEFEFD"/>
</svg>
