<svg width="46" height="46" viewBox="0 0 46 46" fill="none" xmlns="http://www.w3.org/2000/svg">
<mask id="mask0_596_30058" style="mask-type:luminance" maskUnits="userSpaceOnUse" x="4" y="4" width="38" height="38">
<path d="M41.7174 22.7949C41.7174 12.4396 33.3228 4.04492 22.9674 4.04492C12.6121 4.04492 4.21744 12.4396 4.21744 22.7949C4.21744 33.1503 12.6121 41.5449 22.9674 41.5449C33.3228 41.5449 41.7174 33.1503 41.7174 22.7949Z" fill="white"/>
</mask>
<g mask="url(#mask0_596_30058)">
<path d="M22.9674 41.5449C33.3228 41.5449 41.7174 33.1503 41.7174 22.7949C41.7174 12.4396 33.3228 4.04492 22.9674 4.04492C12.6121 4.04492 4.21744 12.4396 4.21744 22.7949C4.21744 33.1503 12.6121 41.5449 22.9674 41.5449Z" fill="#EDF0F4"/>
<path d="M22.9163 11.5439L22.7671 12.0506V26.7511L22.9163 26.8999L29.74 22.8665L22.9163 11.5439Z" fill="#343434"/>
<path d="M22.9161 11.5439L16.0923 22.8665L22.9161 26.8999V19.7647V11.5439Z" fill="#8C8C8C"/>
<path d="M22.9164 28.192L22.8322 28.2946V33.5311L22.9164 33.7766L29.7442 24.1606L22.9164 28.192Z" fill="#3C3C3B"/>
<path d="M22.9161 33.7766V28.192L16.0923 24.1606L22.9161 33.7766Z" fill="#8C8C8C"/>
<path d="M22.9164 26.9008L29.74 22.8673L22.9164 19.7656V26.9008Z" fill="#141414"/>
<path d="M16.0923 22.8673L22.9161 26.9008V19.7656L16.0923 22.8673Z" fill="#393939"/>
</g>
</svg>
