<svg width="46" height="46" viewBox="0 0 46 46" fill="none" xmlns="http://www.w3.org/2000/svg">
<path d="M23.2335 41.5449C33.5889 41.5449 41.9835 33.1503 41.9835 22.7949C41.9835 12.4396 33.5889 4.04492 23.2335 4.04492C12.8782 4.04492 4.48352 12.4396 4.48352 22.7949C4.48352 33.1503 12.8782 41.5449 23.2335 41.5449Z" fill="white"/>
<path fill-rule="evenodd" clip-rule="evenodd" d="M41.9835 22.7949C41.9835 33.1502 33.5889 41.5449 23.2335 41.5449C12.8782 41.5449 4.48352 33.1502 4.48352 22.7949C4.48352 12.4396 12.8782 4.04492 23.2335 4.04492C33.5889 4.04492 41.9835 12.4396 41.9835 22.7949ZM19.1395 39.6541C19.2381 39.5421 19.277 39.3795 19.3545 39.0542L19.456 38.6288C19.5341 38.3017 19.5731 38.1381 19.5432 38.0034C19.5157 37.8796 19.4589 37.7802 19.3662 37.694C19.265 37.5999 19.0942 37.5477 18.7527 37.4431C18.2835 37.2996 17.817 37.1324 17.3545 36.9408C16.9026 36.7537 16.4646 36.5474 16.0407 36.3234C15.7257 36.1567 15.5681 36.0735 15.4303 36.0687C15.3039 36.0644 15.1936 36.0945 15.0869 36.1626C14.9707 36.2367 14.8828 36.3796 14.7071 36.6653L14.478 37.038C14.3025 37.3235 14.2148 37.4663 14.2054 37.6155C14.1974 37.7421 14.2346 37.8805 14.305 37.986C14.3878 38.1103 14.528 38.1859 14.8082 38.3371C15.3371 38.6223 15.8855 38.8833 16.4526 39.1181C17.0318 39.3581 17.6164 39.5649 18.2044 39.7395C18.509 39.8299 18.6614 39.8753 18.8077 39.8459C18.932 39.8208 19.0559 39.7492 19.1395 39.6541ZM32.2599 7.97874C32.2503 8.12769 32.1628 8.27023 31.9875 8.55527L31.7587 8.92749C31.5827 9.21399 31.4945 9.35724 31.3781 9.43141C31.2712 9.49952 31.1607 9.52955 31.0341 9.52498C30.8962 9.51999 30.7384 9.4362 30.4231 9.26863C29.9899 9.03838 29.5416 8.82664 29.0791 8.63506C28.6273 8.44794 28.1717 8.28402 27.7135 8.14277C27.373 8.03777 27.2027 7.98523 27.1019 7.89117C27.0094 7.80485 26.9527 7.70555 26.9253 7.58202C26.8956 7.44739 26.9345 7.2842 27.0124 6.95785L27.1139 6.53245C27.1917 6.20639 27.2306 6.04337 27.3294 5.93126C27.4132 5.83606 27.5374 5.76452 27.6619 5.73963C27.8084 5.71032 27.9609 5.75599 28.266 5.84731C28.8416 6.01962 29.4139 6.22281 29.981 6.45771C30.5602 6.69763 31.1198 6.96477 31.6591 7.25705C31.9384 7.40846 32.0782 7.48424 32.1609 7.60853C32.231 7.71407 32.268 7.85228 32.2599 7.97874ZM32.26 37.611C32.2506 37.462 32.163 37.3195 31.9877 37.0345L31.7589 36.6623C31.583 36.376 31.4946 36.2326 31.3782 36.1583C31.2713 36.0902 31.1609 36.0602 31.0342 36.0648C30.8963 36.0698 30.7387 36.1535 30.4234 36.321C29.9902 36.5513 29.5417 36.7631 29.0792 36.9546C28.6274 37.1419 28.1717 37.3058 27.7137 37.447C27.3731 37.552 27.2028 37.6045 27.102 37.6985C27.0095 37.7849 26.9528 37.8842 26.9255 38.0077C26.8957 38.1424 26.9346 38.3056 27.0125 38.6319L27.1141 39.0573C27.1919 39.3833 27.2307 39.5464 27.3295 39.6585C27.4134 39.7537 27.5375 39.8252 27.662 39.8501C27.8085 39.8794 27.961 39.8338 28.2657 39.7426C28.8413 39.5703 29.4139 39.367 29.981 39.132C30.5603 38.8921 31.1199 38.6249 31.6592 38.3327C31.9384 38.1813 32.0784 38.1055 32.1609 37.9812C32.2312 37.8756 32.2681 37.7374 32.26 37.611ZM19.1396 5.93567C19.2382 6.04766 19.2771 6.21032 19.3548 6.5356L19.4562 6.96091C19.5341 7.28782 19.5732 7.45163 19.5434 7.58641C19.5159 7.7101 19.4591 7.8095 19.3663 7.89578C19.2652 7.98988 19.0944 8.04212 18.7528 8.14659C18.2837 8.2901 17.8171 8.45735 17.3546 8.64894C16.9028 8.8361 16.4647 9.04235 16.0409 9.26641C15.7258 9.43299 15.5682 9.51628 15.4304 9.52103C15.304 9.52539 15.1937 9.49528 15.087 9.42721C14.9708 9.35309 14.883 9.21017 14.7073 8.92442L14.4782 8.55174C14.3028 8.26638 14.2149 8.12337 14.2055 7.97424C14.1975 7.8476 14.2347 7.70925 14.3051 7.60367C14.388 7.47932 14.5281 7.40376 14.8084 7.25263C15.3372 6.96749 15.8856 6.70648 16.4527 6.47159C17.0319 6.23167 17.6165 6.02482 18.2045 5.85019C18.5092 5.7597 18.6616 5.71445 18.8078 5.74394C18.9321 5.76898 19.0559 5.84055 19.1396 5.93567ZM8.9939 31.5488C8.70885 31.7241 8.56633 31.8117 8.41737 31.8212C8.29092 31.8292 8.15271 31.7923 8.04716 31.7221C7.92287 31.6395 7.84715 31.4998 7.6957 31.2203C7.40344 30.6812 7.13628 30.1216 6.8964 29.5424C6.66148 28.9752 6.45827 28.4028 6.28596 27.8273C6.19467 27.5223 6.14899 27.3698 6.17828 27.2231C6.20317 27.0988 6.27471 26.9746 6.36991 26.8908C6.48199 26.7919 6.64496 26.753 6.97084 26.6752L7.39642 26.5737C7.72283 26.4959 7.88603 26.4569 8.02067 26.4867C8.1442 26.5139 8.24352 26.5706 8.32981 26.6631C8.4239 26.764 8.4764 26.9342 8.5814 27.2749C8.72266 27.733 8.8866 28.1887 9.07377 28.6405C9.26533 29.103 9.47694 29.5512 9.70719 29.9844C9.87476 30.2996 9.95862 30.4574 9.9636 30.5953C9.96819 30.722 9.93815 30.8326 9.87005 30.9394C9.7959 31.0559 9.65269 31.1438 9.36633 31.3199L8.9939 31.5488ZM39.4925 18.9159C39.818 18.8383 39.9807 18.7995 40.0927 18.7009C40.1878 18.6171 40.2595 18.4933 40.2845 18.3689C40.3139 18.2227 40.2687 18.0705 40.1782 17.7658C40.0035 17.1779 39.7967 16.5931 39.5569 16.014C39.322 15.4468 39.0609 14.8984 38.7757 14.3696C38.6246 14.0893 38.5491 13.9491 38.4246 13.8663C38.3191 13.7959 38.1807 13.7587 38.0541 13.7667C37.9049 13.7761 37.7621 13.8638 37.4766 14.0394L37.1041 14.2684C36.8184 14.4441 36.6753 14.532 36.6012 14.6482C36.5331 14.7549 36.503 14.8652 36.5074 14.9917C36.5121 15.1295 36.5955 15.287 36.762 15.6021C36.986 16.0259 37.1923 16.464 37.3795 16.9159C37.571 17.3784 37.7384 17.8449 37.8819 18.3139C37.9863 18.6553 38.0385 18.8263 38.1325 18.9274C38.2189 19.0202 38.3182 19.0771 38.442 19.1045C38.5769 19.1344 38.7403 19.0953 39.0673 19.0174L39.4925 18.9159ZM6.37428 18.7009C6.48631 18.7995 6.64903 18.8383 6.97449 18.9159L7.39952 19.0173C7.72663 19.0953 7.8902 19.1344 8.02502 19.1045C8.14873 19.0771 8.2481 19.0202 8.33442 18.9274C8.42842 18.8263 8.48066 18.6556 8.58506 18.3145C8.72853 17.8454 8.89595 17.3783 9.08753 16.9159C9.2747 16.464 9.48098 16.0259 9.70505 15.602C9.87162 15.287 9.95491 15.1294 9.95967 14.9916C9.96406 14.8652 9.93391 14.7548 9.86588 14.6482C9.79171 14.5319 9.6488 14.4441 9.3629 14.2684L8.99041 14.0393C8.70508 13.8639 8.56202 13.776 8.41291 13.7666C8.28627 13.7587 8.14791 13.7958 8.04233 13.8662C7.91798 13.9491 7.84242 14.0893 7.6913 14.3695C7.40612 14.8984 7.14509 15.4468 6.91017 16.0139C6.67027 16.5931 6.46344 17.1777 6.28881 17.7657C6.19834 18.0703 6.15306 18.2227 6.18255 18.3689C6.20759 18.4933 6.27916 18.6171 6.37428 18.7009ZM38.0496 31.8212C37.9007 31.8117 37.7582 31.7241 37.4731 31.5488L37.1009 31.3201C36.8146 31.1439 36.6712 31.0558 36.597 30.9394C36.5289 30.8324 36.4988 30.722 36.5034 30.5953C36.5084 30.4574 36.5921 30.2998 36.7598 29.9845C36.99 29.5514 37.2017 29.103 37.3932 28.6405C37.5805 28.1887 37.7444 27.733 37.8856 27.2748C37.9906 26.9342 38.0431 26.764 38.1373 26.6631C38.2235 26.5706 38.3228 26.514 38.4463 26.4866C38.581 26.4569 38.7442 26.4959 39.0706 26.5737L39.4959 26.6752C39.822 26.753 39.985 26.7919 40.0971 26.8908C40.1923 26.9746 40.2638 27.0987 40.2888 27.2231C40.318 27.3696 40.2724 27.5223 40.181 27.8273C40.0088 28.4028 39.8056 28.9752 39.5706 29.5424C39.3307 30.1214 39.0637 30.6812 38.7713 31.2203C38.6199 31.4998 38.5442 31.6395 38.4199 31.7221C38.3144 31.7923 38.1762 31.8292 38.0496 31.8212ZM11.328 17.9752C10.6355 18.4339 10.9349 19.7403 11.5336 22.353L12.7171 27.517C12.8549 28.1183 12.9238 28.4191 13.1477 28.5501C13.3717 28.681 13.6761 28.5912 14.2847 28.4114C17.1854 27.5546 20.2082 27.1219 23.2335 27.1219C26.3423 27.1219 29.3457 27.5721 32.1824 28.4112C32.7907 28.5912 33.0952 28.681 33.3192 28.5501C33.5432 28.4191 33.6121 28.1184 33.75 27.517L34.9334 22.353C35.5321 19.7403 35.8316 18.4339 35.1391 17.9752C34.4466 17.5164 33.3603 18.3016 31.1881 19.8719L29.0367 21.427C28.9102 21.5184 28.847 21.5641 28.7814 21.5499C28.716 21.5358 28.6775 21.4678 28.6003 21.3323L25.3196 15.5645C24.3944 13.9376 23.9314 13.1239 23.2335 13.1239C22.5356 13.1239 22.0728 13.9374 21.1474 15.5643L17.8668 21.3321C17.7896 21.4677 17.751 21.5358 17.6855 21.5499C17.6201 21.5641 17.5568 21.5184 17.4303 21.427L15.279 19.8719C13.1067 18.3016 12.0205 17.5164 11.328 17.9752ZM14.4187 26.8123C14.5081 26.7876 14.598 26.7631 14.6878 26.7391C14.7482 26.723 14.7784 26.7148 14.8022 26.6964C14.826 26.6781 14.8414 26.651 14.8721 26.597L16.8223 23.1684C16.8856 23.0573 16.9172 23.0014 16.9051 22.9455C16.8929 22.8894 16.841 22.8519 16.7373 22.7769L13.1076 20.1531C12.8361 19.9569 12.7003 19.8587 12.6137 19.916C12.5272 19.9734 12.5646 20.1366 12.6394 20.463L14.0434 26.5894C14.0765 26.7339 14.093 26.8062 14.1481 26.8389C14.2031 26.8719 14.275 26.852 14.4187 26.8123ZM18.1941 23.8914C18.2595 23.8773 18.3228 23.923 18.4494 24.0145L20.121 25.2228C20.3982 25.4231 20.537 25.5235 20.51 25.6234C20.4832 25.7233 20.3117 25.7406 19.9689 25.7751C19.0535 25.8671 18.2049 25.9902 17.4413 26.1246C17.1623 26.1738 17.0228 26.1984 16.9679 26.1206C16.9131 26.0427 16.9826 25.9205 17.1218 25.6758L18.0129 24.1092C18.0901 23.9735 18.1286 23.9056 18.1941 23.8914ZM26.3459 25.223L28.0177 24.0145C28.1442 23.923 28.2075 23.8773 28.273 23.8914C28.3384 23.9056 28.377 23.9735 28.4542 24.1092L29.3453 25.6758C29.4844 25.9205 29.5539 26.0427 29.4991 26.1206C29.4442 26.1984 29.3048 26.1738 29.0257 26.1246C28.2621 25.9902 27.4135 25.8671 26.4981 25.7751C26.1553 25.7406 25.9838 25.7233 25.957 25.6234C25.93 25.5235 26.0687 25.4233 26.3459 25.223ZM27.4099 22.2733L24.5444 17.2352C24.3194 16.8397 24.2069 16.6419 24.0952 16.6714C23.9835 16.701 23.9835 16.9285 23.9835 17.3835V24.4927C23.9835 24.7495 23.9835 24.878 24.0653 24.9198C24.147 24.9616 24.251 24.8863 24.4592 24.7359L27.3248 22.6645C27.4284 22.5896 27.4803 22.552 27.4924 22.4959C27.5046 22.4399 27.4731 22.3844 27.4099 22.2733ZM29.562 22.9455C29.5742 22.8894 29.626 22.8519 29.7298 22.7769L33.3594 20.1531C33.6309 19.957 33.7667 19.8587 33.8532 19.916C33.9398 19.9734 33.9024 20.1366 33.8277 20.463L32.4237 26.5894C32.3906 26.7339 32.3739 26.8062 32.3189 26.8389C32.2639 26.8719 32.192 26.852 32.0484 26.8123C31.9589 26.7876 31.8691 26.7631 31.7792 26.7391C31.7191 26.723 31.6887 26.7148 31.6648 26.6964C31.641 26.6781 31.6257 26.6512 31.595 26.5973L29.6448 23.1684C29.5816 23.0573 29.5498 23.0014 29.562 22.9455ZM22.4017 24.9198C22.4835 24.878 22.4835 24.7495 22.4835 24.4927V17.3835C22.4835 16.9285 22.4835 16.701 22.3719 16.6714C22.2602 16.6419 22.1477 16.8397 21.9227 17.2352L19.0573 22.273C18.9939 22.3842 18.9624 22.4398 18.9746 22.4959C18.9867 22.552 19.0385 22.5895 19.1423 22.6645L22.0078 24.7358C22.2157 24.886 22.32 24.9616 22.4017 24.9198ZM32.3914 29.2585C29.4988 28.3574 26.4228 27.8719 23.2335 27.8719C20.0442 27.8719 16.9682 28.3574 14.0756 29.2585C13.7234 29.3683 13.5473 29.4233 13.4354 29.5526C13.3861 29.6095 13.3459 29.6795 13.3215 29.7508C13.266 29.9124 13.3084 30.0974 13.3931 30.4671C13.4963 30.9174 13.548 31.143 13.6886 31.2698C13.7531 31.328 13.8237 31.3687 13.9063 31.3953C14.0866 31.4535 14.3144 31.3831 14.7701 31.2424C17.445 30.4164 20.2874 29.9719 23.2335 29.9719C26.1796 29.9719 29.0219 30.4164 31.6969 31.2424C32.1525 31.3831 32.3805 31.4535 32.5606 31.3953C32.6434 31.3687 32.7139 31.328 32.7784 31.2698C32.9191 31.143 32.9706 30.9178 33.0738 30.4676C33.1585 30.0978 33.201 29.9124 33.1456 29.7508C33.1212 29.6795 33.0809 29.6095 33.0317 29.5526C32.9198 29.4231 32.7437 29.3683 32.3914 29.2585Z" fill="#018FDC"/>
</svg>
