<svg width="46" height="46" viewBox="0 0 46 46" fill="none" xmlns="http://www.w3.org/2000/svg">
<path d="M22.5705 41.5449C32.9259 41.5449 41.3205 33.1503 41.3205 22.7949C41.3205 12.4396 32.9259 4.04492 22.5705 4.04492C12.2152 4.04492 3.82054 12.4396 3.82054 22.7949C3.82054 33.1503 12.2152 41.5449 22.5705 41.5449Z" fill="#EDF0F4"/>
<path d="M28.1964 19.0297C27.7967 18.7997 27.2826 18.7997 26.8257 19.0297L23.6273 20.9268L21.4569 22.1342L18.3155 24.0315C17.9158 24.2614 17.4017 24.2614 16.9448 24.0315L14.4889 22.5367C14.0891 22.3067 13.8035 21.8468 13.8035 21.3294V18.4548C13.8035 17.9948 14.032 17.5349 14.4889 17.2474L16.9448 15.8101C17.3446 15.5801 17.8586 15.5801 18.3155 15.8101L20.7716 17.3048C21.1713 17.5349 21.4569 17.9948 21.4569 18.5122V20.4095L23.6273 19.1447V17.1899C23.6273 16.7299 23.3988 16.2701 22.9419 15.9826L18.3727 13.2804C17.9729 13.0504 17.4589 13.0504 17.002 13.2804L12.3185 16.04C11.8616 16.2701 11.6331 16.7299 11.6331 17.1899V22.5942C11.6331 23.0542 11.8616 23.5141 12.3185 23.8016L16.9448 26.5037C17.3446 26.7336 17.8586 26.7336 18.3155 26.5037L21.4569 24.664L23.6273 23.399L26.7686 21.5593C27.1684 21.3294 27.6825 21.3294 28.1394 21.5593L30.5953 22.9966C30.9951 23.2267 31.2807 23.6865 31.2807 24.204V27.0786C31.2807 27.5386 31.0522 27.9985 30.5953 28.286L28.1964 29.7233C27.7967 29.9532 27.2826 29.9532 26.8257 29.7233L24.3698 28.286C23.97 28.056 23.6844 27.596 23.6844 27.0786V25.2389L21.5141 26.5037V28.401C21.5141 28.8609 21.7425 29.3209 22.1994 29.6083L26.8257 32.3104C27.2255 32.5404 27.7395 32.5404 28.1964 32.3104L32.8228 29.6083C33.2226 29.3783 33.5082 28.9183 33.5082 28.401V22.9392C33.5082 22.4792 33.2797 22.0193 32.8228 21.7318L28.1964 19.0297Z" fill="#8247E5"/>
</svg>
