<svg width="46" height="46" viewBox="0 0 46 46" fill="none" xmlns="http://www.w3.org/2000/svg">
<mask id="mask0_596_30042" style="mask-type:luminance" maskUnits="userSpaceOnUse" x="4" y="4" width="39" height="38">
<path d="M42.1846 22.7949C42.1846 12.4396 33.79 4.04492 23.4346 4.04492C13.0793 4.04492 4.68463 12.4396 4.68463 22.7949C4.68463 33.1503 13.0793 41.5449 23.4346 41.5449C33.79 41.5449 42.1846 33.1503 42.1846 22.7949Z" fill="white"/>
</mask>
<g mask="url(#mask0_596_30042)">
<path d="M23.4346 41.5449C33.79 41.5449 42.1846 33.1503 42.1846 22.7949C42.1846 12.4396 33.79 4.04492 23.4346 4.04492C13.0793 4.04492 4.68463 12.4396 4.68463 22.7949C4.68463 33.1503 13.0793 41.5449 23.4346 41.5449Z" fill="black"/>
<path d="M16.308 27.2359C16.438 27.1061 16.6166 27.0303 16.8061 27.0303H33.9896C34.3037 27.0303 34.4607 27.4093 34.2388 27.6312L30.8442 31.0257C30.7142 31.1556 30.5356 31.2314 30.3461 31.2314H13.1626C12.8486 31.2314 12.6916 30.8525 12.9135 30.6305L16.308 27.2359Z" fill="url(#paint0_linear_596_30042)"/>
<path d="M16.3081 14.5622C16.4435 14.4322 16.6221 14.3564 16.8062 14.3564H33.9897C34.3038 14.3564 34.4608 14.7354 34.2389 14.9574L30.8443 18.3518C30.7143 18.4818 30.5357 18.5576 30.3462 18.5576H13.1627C12.8487 18.5576 12.6916 18.1786 12.9136 17.9567L16.3081 14.5622Z" fill="url(#paint1_linear_596_30042)"/>
<path d="M30.8442 20.86C30.7143 20.73 30.5357 20.6543 30.3462 20.6543H13.1626C12.8486 20.6543 12.6916 21.0332 12.9136 21.2552L16.308 24.6497C16.438 24.7796 16.6166 24.8554 16.8061 24.8554H33.9897C34.3037 24.8554 34.4608 24.4764 34.2388 24.2544L30.8442 20.86Z" fill="url(#paint2_linear_596_30042)"/>
</g>
<defs>
<linearGradient id="paint0_linear_596_30042" x1="-26.0283" y1="11.1685" x2="-26.4856" y2="34.1745" gradientUnits="userSpaceOnUse">
<stop stop-color="#00FFA3"/>
<stop offset="1" stop-color="#DC1FFF"/>
</linearGradient>
<linearGradient id="paint1_linear_596_30042" x1="-31.2283" y1="8.45371" x2="-31.6854" y2="31.4597" gradientUnits="userSpaceOnUse">
<stop stop-color="#00FFA3"/>
<stop offset="1" stop-color="#DC1FFF"/>
</linearGradient>
<linearGradient id="paint2_linear_596_30042" x1="-28.6448" y1="9.80396" x2="-29.1021" y2="32.8099" gradientUnits="userSpaceOnUse">
<stop stop-color="#00FFA3"/>
<stop offset="1" stop-color="#DC1FFF"/>
</linearGradient>
</defs>
</svg>
