<svg width="46" height="46" viewBox="0 0 46 46" fill="none" xmlns="http://www.w3.org/2000/svg">
<path fill-rule="evenodd" clip-rule="evenodd" d="M11.486 6.6438L4.64792 21.0063C4.62175 21.06 4.61345 21.1206 4.62425 21.1793C4.63505 21.238 4.66437 21.2917 4.70792 21.3326L23.1748 39.0269C23.2272 39.0773 23.2971 39.1055 23.3698 39.1055C23.4425 39.1055 23.5124 39.0773 23.5648 39.0269L42.0317 21.3326C42.0748 21.2919 42.1039 21.2385 42.1147 21.1802C42.1254 21.1218 42.1174 21.0616 42.0917 21.0082L35.2535 6.64567C35.2316 6.5975 35.1962 6.55668 35.1516 6.52808C35.1071 6.49949 35.0552 6.48433 35.0023 6.48442H11.741C11.6877 6.48344 11.6352 6.49798 11.5899 6.52627C11.5446 6.55456 11.5085 6.59539 11.486 6.6438Z" fill="#50AF95"/>
<path fill-rule="evenodd" clip-rule="evenodd" d="M25.7417 22.482C25.6105 22.4913 24.9242 22.5326 23.398 22.5326C22.1811 22.5326 21.3186 22.4951 21.0167 22.482C16.3198 22.2757 12.8136 21.4582 12.8136 20.4795C12.8136 19.5007 16.3198 18.6832 21.0167 18.4732V21.6701C21.3223 21.6926 22.2017 21.7451 23.4167 21.7451C24.8755 21.7451 25.6067 21.6832 25.738 21.6701V18.4751C30.4255 18.6851 33.9223 19.5026 33.9223 20.4795C33.9223 21.4545 30.4255 22.2738 25.738 22.4801L25.7417 22.482ZM25.7417 18.1451V15.2876H32.2836V10.9282H14.4748V15.2876H21.0148V18.1451C15.6992 18.3888 11.7017 19.4407 11.7017 20.7026C11.7017 21.9645 15.6992 23.0163 21.0148 23.262V32.4213H25.7398V23.2582C31.0442 23.0145 35.0342 21.9626 35.0342 20.7026C35.0342 19.4407 31.048 18.3888 25.7417 18.1451Z" fill="white"/>
</svg>
