<svg width="46" height="46" viewBox="0 0 46 46" fill="none" xmlns="http://www.w3.org/2000/svg">
<path d="M23.1683 41.5449C33.5236 41.5449 41.9183 33.1503 41.9183 22.7949C41.9183 12.4396 33.5236 4.04492 23.1683 4.04492C12.8129 4.04492 4.41827 12.4396 4.41827 22.7949C4.41827 33.1503 12.8129 41.5449 23.1683 41.5449Z" fill="#0AC18E"/>
<path d="M29.017 16.4981C28.0747 14.3614 25.9094 13.9045 23.2587 14.3471L22.4069 11.0444L20.3986 11.5632L21.2362 14.8563C20.708 14.9895 20.1655 15.1038 19.6277 15.256L18.7901 11.9819L16.7819 12.5007L17.6337 15.8033C17.2007 15.927 13.5792 16.855 13.5792 16.855L14.1312 19.006C14.1312 19.006 15.6064 18.592 15.5922 18.6253C16.4107 18.4112 16.7962 18.8204 16.977 19.2059L19.3184 28.2573C19.3469 28.519 19.2993 28.9664 18.7378 29.1187C18.7711 29.1377 17.2768 29.4946 17.2768 29.4946L17.4957 32.0026C17.4957 32.0026 21.0839 31.0841 21.5551 30.9651L22.4164 34.3059L24.4247 33.7871L23.5633 30.4226C24.1153 30.2941 24.6531 30.1609 25.1766 30.0229L26.0332 33.3684L28.0414 32.8496L27.1801 29.5137C30.2733 28.7618 32.4577 26.8106 32.0103 23.8268C31.7248 22.0279 29.7594 20.5527 28.1271 20.3861C29.1312 19.4962 29.6404 18.197 29.017 16.4981ZM28.0509 24.3741C28.4507 27.3293 24.3438 27.691 22.9875 28.0479L21.8073 23.6269C23.1683 23.27 27.3752 21.771 28.0509 24.3741ZM25.5763 18.3541C25.9999 20.981 22.4878 21.2855 21.3552 21.5758L20.2797 17.5641C21.417 17.2833 24.715 15.9223 25.5763 18.3541Z" fill="white"/>
</svg>
