<svg width="63" height="41" viewBox="0 0 63 41" fill="none" xmlns="http://www.w3.org/2000/svg">
<g clip-path="url(#clip0_596_29963)">
<path d="M55.2866 0.858398H8.15337C4.1486 0.858398 0.9021 4.1049 0.9021 8.10967V33.4891C0.9021 37.4939 4.1486 40.7404 8.15337 40.7404H55.2866C59.2914 40.7404 62.5379 37.4939 62.5379 33.4891V8.10967C62.5379 4.1049 59.2914 0.858398 55.2866 0.858398Z" fill="#000008"/>
<path d="M36.1474 12.9082H27.0724V29.2878H36.1474V12.9082Z" fill="#FF5F00"/>
<path d="M27.6487 21.0981C27.6472 19.5207 28.0031 17.9634 28.6894 16.5446C29.3758 15.1257 30.3744 13.8823 31.61 12.9083C30.0799 11.7004 28.2425 10.9492 26.3075 10.7406C24.3726 10.5321 22.4183 10.8744 20.6679 11.7287C18.9175 12.583 17.4417 13.9146 16.4093 15.5714C15.3768 17.2284 14.8293 19.1435 14.8293 21.0981C14.8293 23.0527 15.3768 24.9679 16.4093 26.6247C17.4417 28.2816 18.9175 29.6132 20.6679 30.4674C22.4183 31.3217 24.3726 31.6641 26.3075 31.4555C28.2425 31.247 30.0799 30.4958 31.61 29.2878C30.3744 28.3139 29.3758 27.0705 28.6894 25.6516C28.0032 24.2327 27.6472 22.6756 27.6487 21.0981Z" fill="#EB001B"/>
<path d="M48.39 21.0981C48.3901 23.0527 47.8426 24.9678 46.8102 26.6246C45.7778 28.2816 44.3021 29.6132 42.5518 30.4674C40.8015 31.3217 38.8472 31.6641 36.9123 31.4555C34.9774 31.247 33.1399 30.4958 31.61 29.2878C32.8443 28.313 33.8423 27.0693 34.5284 25.6506C35.2147 24.232 35.5711 22.6753 35.5711 21.0981C35.5711 19.5208 35.2147 17.9643 34.5284 16.5456C33.8423 15.1268 32.8443 13.8832 31.61 12.9083C33.1399 11.7004 34.9774 10.9492 36.9123 10.7406C38.8472 10.5321 40.8015 10.8744 42.5518 11.7287C44.3021 12.583 45.7778 13.9147 46.8102 15.5715C47.8426 17.2284 48.3901 19.1435 48.39 21.0981Z" fill="#F79E1B"/>
<path d="M47.4006 27.5533V27.2179H47.5352V27.1496H47.1923V27.2179H47.327V27.5533H47.4006ZM48.0662 27.5533V27.1489H47.9611L47.8402 27.427L47.7193 27.1489H47.6141V27.5533H47.6884V27.2483L47.8018 27.5112H47.8787L47.992 27.2476V27.5533H48.0662Z" fill="#F79E1B"/>
</g>
<defs>
<clipPath id="clip0_596_29963">
<rect width="61.6358" height="39.882" fill="white" transform="translate(0.9021 0.853027)"/>
</clipPath>
</defs>
</svg>
