<svg width="46" height="46" viewBox="0 0 46 46" fill="none" xmlns="http://www.w3.org/2000/svg">
<path d="M23.1992 41.5199C33.2082 41.5199 41.3222 33.4059 41.3222 23.3969C41.3222 13.3879 33.2082 5.27393 23.1992 5.27393C13.1902 5.27393 5.07623 13.3879 5.07623 23.3969C5.07623 33.4059 13.1902 41.5199 23.1992 41.5199Z" fill="white"/>
<path fill-rule="evenodd" clip-rule="evenodd" d="M22.0145 5.16253C21.388 5.19736 20.5252 5.27665 20.4448 5.30667C20.4115 5.31898 20.2123 5.35424 20.002 5.38496C19.7916 5.41569 19.5018 5.46694 19.358 5.49894C19.2141 5.5308 18.9696 5.58474 18.8146 5.61872C18.6595 5.6527 18.4331 5.70764 18.3114 5.74063C18.1896 5.77362 17.948 5.83875 17.7746 5.88519C17.463 5.96872 16.6261 6.25968 16.4906 6.33161C16.4521 6.35199 16.4014 6.36856 16.3777 6.36856C16.3539 6.36856 16.2496 6.40622 16.1457 6.4521C15.8638 6.57641 15.7303 6.63361 15.5766 6.69534C15.4373 6.75141 14.3475 7.27542 14.1718 7.3707C14.0641 7.42932 14.0089 7.36561 15.4121 8.80383C15.7774 9.17789 16.1403 9.55428 16.5008 9.93298C16.9462 10.405 16.9485 10.4067 17.0706 10.356C17.3099 10.2568 18.6768 9.85624 19.0157 9.78601C20.2926 9.52153 21.1639 9.42327 22.7983 9.35927C23.6984 9.32416 25.5468 9.48345 26.5831 9.68549C27.2199 9.80952 27.3097 9.82849 27.4486 9.86828C27.526 9.89036 27.7706 9.95365 27.992 10.0089C28.2133 10.0639 28.5936 10.1731 28.837 10.2514C29.0804 10.3297 29.2824 10.3938 29.2861 10.3938C29.2898 10.3938 29.4704 10.181 29.6876 9.9208C29.8654 9.70735 30.0444 9.49497 30.2247 9.28367C30.3028 9.19334 30.4574 9.01225 30.568 8.88114C30.8462 8.55181 31.5039 7.83864 31.7514 7.59781C31.8644 7.48794 31.9567 7.37934 31.9565 7.35626C31.9561 7.30699 31.279 6.97171 30.3668 6.56947C29.9949 6.40551 29.9028 6.36856 29.8653 6.36856C29.8417 6.36856 29.7908 6.35143 29.7525 6.33033C29.4541 6.16708 27.6556 5.65511 26.7643 5.47983C25.2635 5.18462 23.6051 5.0739 22.0145 5.16253ZM38.1624 12.8811C38.1375 12.9632 38.0454 13.3201 37.9578 13.6744C37.7835 14.3788 37.6507 14.8678 37.4662 15.4857C37.4001 15.707 37.3089 16.0149 37.2635 16.17C37.2181 16.3249 37.0648 16.8003 36.9227 17.2265L36.6643 18.0012L36.7397 18.1522C36.7812 18.2353 36.9706 18.6023 37.1607 18.9676C37.807 20.2107 38.2814 21.429 38.5367 22.5017C38.5931 22.7384 38.6562 22.9957 38.677 23.0731C38.9404 24.054 39.1211 25.6978 39.1259 27.1587C39.1273 27.6015 39.1099 28.0543 39.0869 28.165C38.9851 28.6581 38.9565 28.7677 38.8581 29.0415C38.8087 29.1779 38.7615 29.3151 38.7167 29.453C38.6249 29.7527 38.136 30.6672 37.8129 31.1437C37.278 31.9326 37.0948 32.1638 36.4417 32.8744C36.3055 33.0221 36.17 33.1705 36.0352 33.3195C35.7784 33.6095 34.5594 34.6537 34.07 35.0029C32.5744 36.0701 31.1931 36.8673 29.7004 37.5246C29.1839 37.7522 27.9933 38.2078 27.9155 38.2078C27.8978 38.2078 27.8263 38.2333 27.7565 38.2644C27.599 38.3348 27.0918 38.4895 27.0186 38.4895C26.9889 38.4895 26.9329 38.5061 26.8946 38.5264C26.8293 38.5608 26.525 38.6348 25.7983 38.7931C25.6322 38.8293 25.3865 38.8844 25.2523 38.9157C25.1181 38.947 24.9459 38.9726 24.8699 38.9728C24.7939 38.9729 24.5505 39.0011 24.329 39.0352C23.1883 39.2113 21.5779 39.0712 20.0422 38.6621C19.7133 38.5745 18.907 38.3274 18.8146 38.2859C18.7702 38.2661 18.6435 38.2201 18.5328 38.1839C17.4941 37.8432 15.1136 36.7298 14.3172 36.2123C14.2347 36.1586 14.1568 36.1147 14.1439 36.1147C14.1312 36.1147 13.9834 36.0241 13.8156 35.9134C13.6477 35.8028 13.5049 35.7122 13.4984 35.7122C13.4136 35.7122 12.0494 34.7336 11.4283 34.2271C10.2163 33.239 9.77063 32.8104 8.79029 31.6914C8.61826 31.4949 8.16802 30.8976 8.16802 30.8657C8.16802 30.8552 8.08505 30.7257 7.98368 30.5776C7.88216 30.4295 7.78871 30.2788 7.77583 30.2429C7.76294 30.2069 7.7199 30.1306 7.68026 30.0733C6.9644 29.0383 6.81234 27.9929 7.03987 25.6694C7.10599 24.9942 7.3573 23.5159 7.48105 23.0731C7.69866 22.2953 7.91288 21.5773 7.96711 21.4429C7.98509 21.3986 8.02969 21.2649 8.06622 21.146C8.15273 20.8641 8.5268 19.9109 8.69203 19.551C8.76325 19.3961 8.92904 19.0376 9.06058 18.7545C9.37334 18.0812 9.37362 18.0439 9.07573 17.2365C8.75758 16.3748 8.52283 15.6591 8.40886 15.2039C8.39229 15.1375 8.33835 14.9382 8.28908 14.7611C8.13305 14.2007 8.00803 13.6742 7.91855 13.1999C7.86319 12.9064 7.86729 12.9042 7.52366 13.427C6.97035 14.269 6.36535 15.3775 6.05967 16.1097C5.99929 16.252 5.93717 16.3936 5.87334 16.5344C5.81246 16.6685 5.75002 16.8358 5.73459 16.9064C5.71901 16.9767 5.6897 17.0447 5.66932 17.0574C5.64879 17.07 5.63208 17.1083 5.63208 17.1424C5.63208 17.1764 5.60674 17.2615 5.57573 17.3311C5.42805 17.6633 5.19246 18.4965 4.92542 19.6316C4.74009 20.4195 4.60742 21.5413 4.51907 23.0672C4.48056 23.734 4.63305 25.5213 4.80805 26.4543C4.91778 27.0385 5.07352 27.7309 5.17037 28.0643C5.46359 29.0741 5.52391 29.2565 5.69806 29.6604C5.72822 29.7302 5.75285 29.8074 5.75285 29.832C5.75285 29.8566 5.77041 29.9082 5.79193 29.9467C5.81331 29.9851 5.90591 30.1977 5.99751 30.419C6.91102 32.6265 8.62152 35.0033 10.5495 36.7441C11.2673 37.3923 11.6118 37.6625 12.656 38.3968C12.9051 38.5719 13.5051 38.9374 13.9643 39.1938C14.2374 39.3463 15.6021 40.0191 15.6384 40.0191C15.6571 40.0191 15.7436 40.0558 16.158 40.2394C16.3974 40.3456 17.2224 40.6231 17.9492 40.8421C20.9566 41.748 24.8955 41.7728 27.992 40.905C28.1691 40.8553 28.3744 40.8004 28.4482 40.7827C28.5299 40.7626 28.6105 40.7383 28.6897 40.7099C28.7488 40.6875 28.9328 40.6288 29.0989 40.5793C29.265 40.5301 29.428 40.476 29.4611 40.4593C29.4944 40.4424 29.6122 40.3977 29.7227 40.3597C29.8313 40.3226 29.9387 40.2822 30.0448 40.2384C30.2055 40.1698 30.3665 40.1019 30.5278 40.0347C32.3582 39.2697 34.2764 38.0335 35.759 36.6634C36.4839 35.9935 36.8478 35.6173 37.4945 34.8693C37.6314 34.711 38.2271 33.9201 38.5448 33.4749C39.5992 31.9973 40.5834 29.8286 41.1191 27.8027C41.7545 25.3997 41.846 22.0529 41.3367 19.8328C41.3163 19.7443 41.2604 19.4907 41.2123 19.2693C41.1641 19.048 41.1006 18.7853 41.071 18.6857C40.8188 17.8352 40.7581 17.6389 40.704 17.4982C40.67 17.4097 40.6183 17.2738 40.5893 17.1963C40.2499 16.29 39.7807 15.2518 39.4432 14.6605C39.0194 13.9183 38.632 13.2979 38.3949 12.9817L38.2075 12.7318L38.1624 12.8811ZM32.6914 20.3245C32.7522 20.3339 32.8519 20.3339 32.9128 20.3245C32.9737 20.3153 32.9238 20.3078 32.8021 20.3078C32.6803 20.3078 32.6305 20.3153 32.6914 20.3245ZM28.1831 24.3487C28.2219 24.3589 28.2854 24.3589 28.324 24.3487C28.3628 24.3385 28.3311 24.3303 28.2536 24.3303C28.1761 24.3303 28.1445 24.3385 28.1831 24.3487Z" fill="#F30504"/>
<path fill-rule="evenodd" clip-rule="evenodd" d="M8.28025 4.10726C7.57614 4.57152 7.1065 6.92906 7.32185 8.91806C7.34394 9.12151 7.37962 9.51441 7.40128 9.79107C7.46882 10.6529 7.57841 11.4996 7.7064 12.1458C7.73698 12.3008 7.77436 12.5453 7.78937 12.6892C7.80438 12.8332 7.82972 12.9599 7.84586 12.9709C7.86186 12.9821 7.89471 13.0907 7.91878 13.2125C8.02158 13.7337 8.14491 14.2507 8.28846 14.7621C8.33773 14.9393 8.39167 15.1386 8.40824 15.205C8.52222 15.6602 8.75697 16.3759 9.07511 17.2376C9.373 18.045 9.37272 18.0823 9.05996 18.7556C8.92843 19.0387 8.76263 19.3972 8.69141 19.5521C8.52618 19.912 8.15211 20.8652 8.0656 21.1471C8.02907 21.266 7.98447 21.3997 7.96649 21.444C7.91227 21.5784 7.69805 22.2963 7.48043 23.0742C7.41275 23.3166 7.24469 24.2075 7.13878 24.8855C7.05057 25.4514 6.90446 27.0172 6.93688 27.0497C6.94495 27.0577 7.08484 27.044 7.24752 27.0191C7.8545 26.9259 8.21016 26.9031 9.07298 26.9024C10.0621 26.9016 10.537 26.9493 11.3947 27.1355C12.878 27.4576 14.6243 28.4712 15.8338 29.712C16.0805 29.965 16.0598 29.9677 16.1967 29.6655C17.3497 27.1203 18.7043 25.6405 20.6252 24.8279C21.846 24.3115 23.5539 24.2271 25.0328 24.6101C27.0125 25.1228 28.6883 26.6777 29.581 28.8302C29.6335 28.9585 29.6879 29.0859 29.7439 29.2127C29.7647 29.2568 29.8285 29.4191 29.8857 29.5731C29.9427 29.7273 29.9991 29.8689 30.0108 29.8879C30.0226 29.9069 30.1525 29.8076 30.2998 29.6673C31.2423 28.7689 32.1035 28.2077 33.4569 27.6095C33.5407 27.5724 33.6285 27.5421 33.6521 27.5421C33.6756 27.5421 33.7521 27.5168 33.8217 27.4857C34.1951 27.3197 34.9097 27.1476 35.7197 27.0287C36.4852 26.9164 38.7213 26.9619 39.0605 27.0968C39.1683 27.1396 39.1357 26.1778 38.9837 24.8252C38.9115 24.1837 38.7931 23.5086 38.6764 23.0742C38.6556 22.9968 38.5925 22.7395 38.5361 22.5028C38.2808 21.4301 37.8064 20.2118 37.16 18.9687C37.0185 18.6975 36.8782 18.4257 36.7391 18.1533L36.6636 18.0023L36.922 17.2276C37.0642 16.8014 37.2175 16.326 37.2628 16.1711C37.3083 16.016 37.3995 15.7081 37.4656 15.4868C37.6515 14.8642 37.7836 14.3769 37.9566 13.6755C38.044 13.3212 38.1412 12.9498 38.1728 12.8503C38.2301 12.6692 38.2752 12.4745 38.3825 11.9446C38.5707 11.0159 38.6706 10.4342 38.7386 9.87163L38.8408 9.02637C38.8993 8.54073 38.9028 6.71498 38.8459 6.36965C38.7387 5.71963 38.7121 5.59575 38.6151 5.29884C38.3594 4.51559 38.0811 4.06167 37.875 4.09225C37.7965 4.10386 37.6417 4.12481 37.531 4.13883C37.3496 4.16163 37.072 4.22874 36.5449 4.37698C35.3155 4.72287 33.3054 6.00238 32.2197 7.13025C32.1322 7.22115 32.037 7.29548 32.0083 7.29548C31.9945 7.29552 31.9814 7.30098 31.9716 7.31068C31.9618 7.32039 31.9563 7.33355 31.9562 7.3473C31.9562 7.3759 31.8637 7.48903 31.7508 7.5989C31.5033 7.83974 30.8456 8.55291 30.5674 8.88223C30.4568 9.01334 30.3022 9.19443 30.224 9.28476C30.1457 9.37509 29.9042 9.66181 29.687 9.9219C29.4698 10.1821 29.2892 10.3949 29.2855 10.3949C29.2818 10.3949 29.0797 10.3308 28.8364 10.2525C28.557 10.1639 28.2752 10.083 27.9914 10.01C27.7699 9.95475 27.5254 9.89146 27.448 9.86937C27.3091 9.82958 27.2193 9.81061 26.5825 9.68658C25.5462 9.48454 23.6978 9.32526 22.7977 9.36037C21.1633 9.42437 20.292 9.52263 19.0151 9.78711C18.6762 9.85734 17.3093 10.2579 17.07 10.3571C16.9478 10.4078 16.9456 10.4061 16.5001 9.93407C16.1397 9.55538 15.7768 9.17899 15.4115 8.80493C14.2525 7.61702 14.0824 7.43197 14.1143 7.39304C14.131 7.37265 14.1282 7.36953 14.1078 7.3861C14.0874 7.40281 13.9508 7.30313 13.8042 7.1648C12.3275 5.77103 11.2459 4.96343 10.2004 4.47354C9.43856 4.11646 8.52915 3.94302 8.28025 4.10726ZM22.2259 5.15074C22.287 5.16009 22.3776 5.1598 22.4271 5.15018C22.4766 5.14069 22.4265 5.13319 22.3158 5.13347C22.2052 5.13375 22.1647 5.14154 22.2259 5.15074ZM16.2473 16.5702C17.452 16.8909 18.3119 18.5433 17.5688 19.1101C17.1555 19.4253 15.6876 19.5732 14.588 19.4103C13.6422 19.2702 13.5096 17.8936 14.3662 17.1072C14.9203 16.5982 15.6116 16.401 16.2473 16.5702ZM30.6342 16.5752C31.9238 16.9094 32.5878 18.3808 31.8104 19.1813C31.3535 19.6517 28.7715 19.5432 28.3022 19.0339C28.1225 18.839 28.0191 18.4556 28.0936 18.2597C28.1148 18.204 28.1323 18.1204 28.1323 18.0743C28.1323 17.9235 28.3442 17.5528 28.5698 17.3091C29.1967 16.6319 29.895 16.3837 30.6342 16.5752ZM33.0736 20.5182C33.1864 20.9262 33.2005 21.0549 33.2022 21.6923L33.204 22.3432L32.9323 22.5899C32.3795 23.0915 31.8197 23.4003 30.829 23.7497C30.2804 23.9433 30.121 23.9877 29.199 24.2034C28.6001 24.3435 27.5826 24.4068 27.0661 24.336L26.8743 24.3097L26.8993 24.0703C26.9564 23.5235 27.4456 22.968 28.4544 22.3041C29.5543 21.5803 30.1854 21.2294 31.3925 20.67C31.8216 20.4712 32.4978 20.301 32.8192 20.3109L33.018 20.317L33.0736 20.5182ZM14.1246 20.4445C14.4643 20.5148 14.7041 20.5897 14.9699 20.7085C15.4225 20.9108 16.0785 21.2446 16.5396 21.5074C16.7786 21.6439 17.0182 21.7791 17.2586 21.9129C18.6687 22.6878 19.5166 23.4984 19.5179 24.0724C19.52 24.9943 14.8868 23.9277 13.4604 22.6781C13.022 22.2939 12.9381 21.3903 13.2677 20.5987C13.3909 20.303 13.417 20.2983 14.1246 20.4445ZM4.67477 20.9408C4.67477 21.0184 4.68312 21.0501 4.69317 21.0113C4.70337 20.9649 4.70337 20.9168 4.69317 20.8704C4.68312 20.8316 4.67477 20.8634 4.67477 20.9408ZM41.5864 21.4842C41.5869 21.5728 41.5952 21.6043 41.6048 21.5543C41.6145 21.5042 41.614 21.4317 41.604 21.3932C41.5939 21.3548 41.586 21.3957 41.5864 21.4842ZM4.51378 22.7119C4.51378 22.7895 4.522 22.8211 4.53219 22.7824C4.54225 22.736 4.54225 22.688 4.53219 22.6415C4.522 22.6027 4.51378 22.6345 4.51378 22.7119ZM41.6722 23.2553C41.6722 23.5211 41.6787 23.6244 41.6867 23.4852C41.6946 23.3459 41.6945 23.1286 41.6865 23.0021C41.6786 22.8757 41.6721 22.9897 41.6722 23.2553ZM4.51378 24.0403C4.51378 24.1177 4.522 24.1494 4.53219 24.1106C4.54225 24.0642 4.54225 24.0162 4.53219 23.9697C4.522 23.9311 4.51378 23.9628 4.51378 24.0403ZM41.5864 25.1874C41.5869 25.276 41.5952 25.3074 41.6048 25.2575C41.6145 25.2073 41.614 25.1349 41.604 25.0963C41.5939 25.058 41.586 25.0989 41.5864 25.1874ZM39.1319 27.3409C39.1319 27.4406 39.1398 27.4812 39.1493 27.4315C39.1589 27.3715 39.1589 27.3103 39.1493 27.2503C39.1398 27.2006 39.1319 27.2412 39.1319 27.3409ZM10.1397 33.1095C10.1397 33.1165 10.1986 33.1754 10.2705 33.2404L10.4013 33.3586L10.2831 33.2278C10.1728 33.1058 10.1397 33.0784 10.1397 33.1095ZM35.5964 33.7107L35.4781 33.8415L35.609 33.7233C35.6809 33.6583 35.7398 33.5994 35.7398 33.5925C35.7398 33.5615 35.7067 33.5888 35.5964 33.7107ZM9.4353 35.6731C9.52167 35.7616 9.60152 35.8341 9.61257 35.8341C9.62375 35.8341 9.56202 35.7616 9.47551 35.6731C9.389 35.5844 9.30929 35.512 9.29811 35.512C9.28706 35.512 9.34879 35.5844 9.4353 35.6731ZM10.4416 36.6793C10.5281 36.7678 10.6078 36.8403 10.619 36.8403C10.63 36.8403 10.5683 36.7678 10.4818 36.6793C10.3954 36.5907 10.3155 36.5183 10.3045 36.5183C10.2935 36.5183 10.355 36.5907 10.4416 36.6793ZM35.5159 36.8906L35.3977 37.0214L35.5285 36.9032C35.6005 36.8382 35.6594 36.7793 35.6594 36.7724C35.6594 36.7413 35.6261 36.7687 35.5159 36.8906ZM23.0509 39.123C23.101 39.1326 23.1734 39.1322 23.2119 39.1221C23.2504 39.1121 23.2095 39.1041 23.1208 39.1045C23.0323 39.105 23.0008 39.1133 23.0509 39.123ZM22.0643 41.5373C22.103 41.5475 22.1664 41.5475 22.2052 41.5373C22.2438 41.5272 22.2121 41.5189 22.1347 41.5189C22.0572 41.5189 22.0255 41.5272 22.0643 41.5373Z" fill="#FBA10B"/>
<path fill-rule="evenodd" clip-rule="evenodd" d="M13.3719 20.3886C13.1555 20.6796 13.0079 21.6494 13.1172 22.0631C13.1383 22.1431 13.1652 22.2561 13.1769 22.314C13.2219 22.5356 13.8244 23.0007 14.5235 23.3537C15.919 24.0581 18.666 24.6098 19.34 24.3209L19.53 24.2394L19.5078 24.0241C19.4538 23.5004 18.9743 22.9915 17.8618 22.2773C17.6476 22.14 17.4623 22.0274 17.4497 22.0274C17.4371 22.0274 17.2319 21.9122 16.9936 21.7713C16.0845 21.2336 15.1095 20.7451 14.6243 20.5843C14.1167 20.4161 13.4312 20.3089 13.3719 20.3886ZM32.3795 20.363C31.622 20.5204 30.5943 20.9922 29.2809 21.7855C27.582 22.8115 26.9682 23.4066 26.897 24.0971L26.8746 24.3132L27.3414 24.3424C29.1652 24.4563 31.8042 23.6243 32.953 22.573L33.2046 22.3428L33.2028 21.692C33.2011 21.0683 33.1895 20.9582 33.079 20.5281L33.03 20.3369L32.7449 20.3416C32.5882 20.3441 32.4236 20.3538 32.3795 20.363ZM21.7328 26.8394C21.1997 27.0057 20.9685 27.712 21.1272 28.6892C21.2491 29.4396 22.1546 30.2686 23.2322 30.6162C23.2952 30.6364 23.3027 30.703 23.3027 31.2399V31.841L23.1666 31.9213C23.0917 31.9653 22.9711 32.0895 22.8985 32.197C22.8258 32.3044 22.7606 32.3994 22.7536 32.4081C22.6906 32.4871 21.2119 32.4221 20.6259 32.3148C20.3031 32.2556 19.3539 32.2287 19.3052 32.2774C19.291 32.2916 19.333 32.3646 19.3989 32.4395C19.5703 32.6349 19.6597 32.8319 19.7377 33.1874L19.8062 33.4993H19.9654C20.1411 33.4993 20.1426 33.5014 20.2637 33.9018C20.3455 34.1721 20.579 34.6801 20.6809 34.8098L20.7558 34.9051L20.8317 34.736C20.8988 34.5867 20.9069 34.4724 20.9013 33.7575L20.8949 32.9482L21.1026 32.9651C21.2167 32.9743 21.4733 32.9991 21.6725 33.02C22.8541 33.1446 24.3162 33.1446 25.3555 33.02C25.5215 33.0001 25.7967 32.9723 25.9669 32.9583L26.2764 32.9328L26.2688 33.7091C26.2615 34.4435 26.2659 34.4945 26.3512 34.6538C26.4445 34.8282 26.5228 34.9069 26.5228 34.8259C26.5228 34.8003 26.5491 34.7223 26.5812 34.6525C26.6135 34.5827 26.7204 34.3174 26.8191 34.0628L26.9984 33.6L27.2113 33.5352L27.4242 33.4705L27.5512 33.01C27.6209 32.7567 27.6907 32.4823 27.706 32.4004L27.734 32.2515L27.1384 32.2523C26.6478 32.253 26.5143 32.2662 26.3801 32.3271C26.1413 32.4357 25.8143 32.4639 25.1698 32.4317L24.5962 32.403L24.4131 32.1672C24.3072 32.0308 24.1869 31.9205 24.1276 31.9056L24.0251 31.88L24.0362 31.271L24.0473 30.662L24.2083 30.5877C25.443 30.0176 25.8112 29.4722 25.8157 28.2061C25.8191 27.2435 25.6979 27.0224 25.0676 26.8422C24.7545 26.7527 22.0177 26.7505 21.7328 26.8394ZM21.8347 33.5898C21.8724 33.767 21.9433 33.8382 22.1866 33.9429L22.393 34.0318L22.5264 33.8862C22.7587 33.6328 22.9436 33.706 23.2005 34.1534C23.364 34.4381 23.565 34.3836 23.9567 33.9487C24.1372 33.7481 24.1232 33.749 24.3477 33.9192L24.5275 34.0556L24.6765 33.9485C24.8506 33.8234 24.8923 33.7643 24.9309 33.5885L24.9594 33.4589H21.807L21.8347 33.5898Z" fill="#060505"/>
</svg>
