<svg width="46" height="46" viewBox="0 0 46 46" fill="none" xmlns="http://www.w3.org/2000/svg">
<path d="M22.7011 41.5449C33.0567 41.5449 41.4511 33.1505 41.4511 22.7949C41.4511 12.4393 33.0567 4.04492 22.7011 4.04492C12.3455 4.04492 3.95108 12.4393 3.95108 22.7949C3.95108 33.1505 12.3455 41.5449 22.7011 41.5449Z" fill="#0088CC"/>
<path fill-rule="evenodd" clip-rule="evenodd" d="M17.4848 16.4331H28.0036C28.3748 16.4331 28.7461 16.4894 29.1342 16.6694C29.5231 16.8611 29.8452 17.1656 30.0586 17.5431C30.2611 17.905 30.3661 18.295 30.3661 18.7169C30.3661 19.1162 30.2723 19.5512 30.0586 19.93L30.0511 19.9412L23.4079 31.3544C23.3358 31.4779 23.2325 31.5802 23.1083 31.6512C22.9841 31.7222 22.8434 31.7592 22.7004 31.7586C22.5574 31.7581 22.417 31.7199 22.2934 31.648C22.1697 31.576 22.0672 31.4728 21.9961 31.3487L15.4729 19.96L15.4673 19.9506C15.3173 19.7069 15.0886 19.3244 15.0473 18.835C15.0103 18.3836 15.112 17.9316 15.3389 17.5396C15.5657 17.1475 15.9069 16.8341 16.3167 16.6412C16.7573 16.435 17.2036 16.4331 17.4848 16.4331ZM21.8873 18.0644H17.4848C17.1961 18.0644 17.0854 18.0831 17.0086 18.1187C16.899 18.1687 16.8077 18.2515 16.7473 18.3556C16.6868 18.4597 16.6602 18.5801 16.6711 18.7C16.6786 18.7694 16.7067 18.85 16.8736 19.1237L16.8829 19.1425L21.8892 27.88V18.0644H21.8873ZM23.5186 18.0644V27.9231L28.6373 19.1294C28.7026 19.0017 28.7361 18.8602 28.7348 18.7169C28.7364 18.5954 28.7074 18.4754 28.6504 18.3681C28.6118 18.3097 28.5686 18.2545 28.5211 18.2031C28.5 18.1796 28.4745 18.1605 28.4461 18.1469C28.3065 18.0849 28.1542 18.0566 28.0017 18.0644H23.5186Z" fill="white"/>
</svg>
