<svg width="46" height="46" viewBox="0 0 46 46" fill="none" xmlns="http://www.w3.org/2000/svg">
<path fill-rule="evenodd" clip-rule="evenodd" d="M22.8369 41.5449C12.5244 41.5449 4.08686 33.1075 4.08686 22.7015C4.18061 12.3893 12.5244 3.95195 22.9306 4.0457C33.2431 4.13944 41.5869 12.483 41.5869 22.9828C41.4931 33.2013 33.1494 41.5449 22.8369 41.5449Z" fill="#FC070C"/>
<path fill-rule="evenodd" clip-rule="evenodd" d="M34.4731 17.1799C33.6048 16.3368 32.6871 15.4458 31.8773 14.727L31.7953 14.6696C31.6588 14.56 31.5049 14.474 31.34 14.4153L30.7148 14.2987C26.4018 13.4939 12.4241 10.8858 12.1365 10.9208C12.0515 10.9327 11.9702 10.9635 11.8986 11.011L11.8207 11.0725C11.7247 11.17 11.6519 11.2877 11.6074 11.417L11.5869 11.4704V11.7616V11.8067C12.5359 14.4493 15.0012 20.3508 17.2775 25.7999C19.202 30.4069 20.9914 34.6903 21.6152 36.4078C21.6972 36.6622 21.8533 37.1461 22.1443 37.1707H22.2099C22.3658 37.1707 23.0302 36.293 23.0302 36.293C23.0302 36.293 34.9084 21.8883 36.1101 20.3543C36.2656 20.1654 36.403 19.9621 36.5203 19.7473C36.5811 19.4054 36.4581 19.0566 36.1963 18.8285C35.6845 18.3561 35.0913 17.7802 34.4731 17.1799ZM26.0778 20.5061L31.1472 16.302L34.1209 19.0418L26.0778 20.5061ZM15.3809 13.0781L24.109 20.2311L29.5025 15.6826L15.3809 13.0781ZM24.8965 22.1057L33.8297 20.666L23.6168 32.9707L24.8965 22.1057ZM23.3789 21.5848L14.1955 13.7918L22.05 32.9788L23.3789 21.5848Z" fill="white"/>
</svg>
