<svg width="46" height="46" viewBox="0 0 46 46" fill="none" xmlns="http://www.w3.org/2000/svg">
<mask id="mask0_596_30031" style="mask-type:luminance" maskUnits="userSpaceOnUse" x="4" y="4" width="38" height="38">
<path d="M4.1521 4.04492H41.6521V41.5449H4.1521V4.04492Z" fill="white"/>
</mask>
<g mask="url(#mask0_596_30031)">
<path d="M22.9021 41.5449C33.2574 41.5449 41.6521 33.1503 41.6521 22.7949C41.6521 12.4396 33.2574 4.04492 22.9021 4.04492C12.5468 4.04492 4.1521 12.4396 4.1521 22.7949C4.1521 33.1503 12.5468 41.5449 22.9021 41.5449Z" fill="#EB322A"/>
<path fill-rule="evenodd" clip-rule="evenodd" d="M25.3883 24.4902C24.5704 24.534 23.7512 24.5515 22.9321 24.5427C21.659 24.5427 20.7571 24.5052 20.4383 24.4902C15.5221 24.2727 11.8508 23.4177 11.8508 22.392C11.8508 21.3683 15.5221 20.5133 20.4383 20.292V23.637C20.7608 23.6595 21.6815 23.7139 22.9546 23.7139C24.4808 23.7139 25.2458 23.6502 25.3827 23.6389V20.2958C30.2896 20.5133 33.9515 21.3702 33.9515 22.392C33.9515 23.4158 30.2896 24.2708 25.3827 24.4883H25.3865L25.3883 24.4902ZM25.3883 19.9489V16.9583H32.234V12.3945H13.5927V16.9583H20.4365V19.9489C14.8733 20.2039 10.6883 21.3064 10.6883 22.6264C10.6883 23.9483 14.8733 25.0489 20.4383 25.3077V34.8945H25.3865V25.302C30.9365 25.047 35.1158 23.9464 35.1158 22.6264C35.1158 21.3064 30.9421 20.2058 25.3846 19.9489H25.3883Z" fill="white"/>
</g>
</svg>
