<svg width="62" height="41" viewBox="0 0 62 41" fill="none" xmlns="http://www.w3.org/2000/svg">
<g clip-path="url(#clip0_596_29960)">
<path d="M54.3845 0.859375H7.25127C3.2465 0.859375 0 4.10588 0 8.11065V33.4901C0 37.4949 3.2465 40.7414 7.25127 40.7414H54.3845C58.3893 40.7414 61.6358 37.4949 61.6358 33.4901V8.11065C61.6358 4.10588 58.3893 0.859375 54.3845 0.859375Z" fill="#1434CB"/>
<path d="M30.4414 14.3006L27.5665 27.7984H24.0902L26.9655 14.3006H30.4414ZM45.0677 23.0162L46.898 17.9473L47.9511 23.0162H45.0677ZM48.9465 27.7984H52.162L49.3561 14.3006H46.3879C45.721 14.3006 45.1583 14.6902 44.9078 15.2909L39.6922 27.7984H43.3429L44.0677 25.7828H48.5279L48.9465 27.7984ZM39.8734 23.3913C39.8883 19.8287 34.9684 19.6327 35.0024 18.0413C35.0126 17.5564 35.4723 17.0421 36.4766 16.91C36.9755 16.8446 38.3473 16.7947 39.9049 17.5146L40.5149 14.6522C39.6782 14.3472 38.6016 14.0537 37.2627 14.0537C33.8267 14.0537 31.4082 15.8886 31.3878 18.516C31.3661 20.4588 33.1142 21.5432 34.4316 22.1891C35.7859 22.8509 36.241 23.2746 36.235 23.8663C36.2261 24.7724 35.1546 25.1714 34.155 25.1872C32.4069 25.215 31.3925 24.7134 30.5839 24.335L29.9539 27.2925C30.7659 27.6672 32.2653 27.9927 33.8208 28.0094C37.4723 28.0094 39.8615 26.1971 39.8734 23.3913ZM25.4738 14.3006L19.8414 27.7984H16.166L13.3945 17.0262C13.226 16.3628 13.0797 16.1201 12.568 15.8403C11.733 15.3853 10.3528 14.9577 9.13843 14.6928L9.22136 14.3006H15.1367C15.8904 14.3006 16.5688 14.8048 16.7398 15.6766L18.2038 23.4878L21.8214 14.3006H25.4738Z" fill="white"/>
</g>
<defs>
<clipPath id="clip0_596_29960">
<rect width="61.6358" height="39.882" fill="white" transform="translate(0 0.853027)"/>
</clipPath>
</defs>
</svg>
